<!DOCTYPE svg PUBLIC "-//W3C//DTD SVG 20010904//EN" "http://www.w3.org/TR/2001/REC-SVG-20010904/DTD/svg10.dtd">
<svg version="1.0" xmlns="http://www.w3.org/2000/svg" width="750px" height="519px" viewBox="0 0 7500 5190" preserveAspectRatio="xMidYMid meet">
<g id="layer101" fill="#5c4233" stroke="none">
<path d="M2010 4827 c-13 -15 -37 -27 -61 -31 -21 -3 -39 -10 -39 -15 0 -5 -15 -16 -32 -24 -30 -15 -67 -46 -93 -79 -6 -7 -19 -40 -29 -73 -10 -33 -25 -76 -33 -95 -11 -28 -12 -49 -3 -105 17 -109 18 -129 8 -142 -9 -11 -6 -88 6 -173 5 -37 18 -243 19 -295 0 -16 4 -68 9 -113 9 -90 5 -122 -18 -122 -7 0 -19 -9 -26 -20 -7 -12 -33 -31 -57 -43 -50 -25 -91 -70 -91 -99 0 -12 -20 -43 -45 -69 -25 -26 -45 -55 -45 -63 0 -8 -9 -30 -19 -48 -35 -59 -20 -215 26 -269 7 -8 13 -33 13 -54 0 -21 7 -46 16 -56 14 -16 14 -19 -5 -38 -12 -12 -32 -21 -46 -21 -15 0 -29 -9 -37 -22 -18 -34 -38 -90 -38 -113 0 -11 -13 -42 -28 -69 -25 -47 -32 -52 -102 -77 -50 -17 -78 -33 -85 -48 -5 -11 -13 -21 -17 -21 -12 0 -10 -38 2 -45 16 -10 11 -24 -15 -41 -20 -13 -31 -14 -49 -6 -28 12 -46 -1 -46 -33 0 -12 -4 -25 -8 -31 -5 -5 -15 -42 -22 -82 -11 -60 -18 -77 -40 -92 -22 -16 -28 -30 -33 -75 -3 -33 -16 -74 -31 -100 -21 -35 -26 -56 -26 -112 0 -78 25 -230 40 -248 16 -19 25 -115 11 -115 -6 0 -11 -16 -11 -36 0 -35 -81 -204 -101 -212 -5 -2 -9 -14 -9 -27 0 -12 -7 -28 -15 -35 -8 -7 -15 -20 -15 -29 0 -16 -41 -41 -67 -41 -8 0 -16 -7 -19 -15 -4 -8 -12 -15 -19 -15 -7 0 -18 -7 -26 -16 -11 -14 -13 -14 -21 0 -6 11 -24 16 -60 16 -45 0 -50 -2 -45 -20 7 -28 -21 -26 -32 1 -4 12 -21 29 -38 38 -54 28 -113 71 -113 81 0 6 -7 10 -15 10 -8 0 -15 5 -15 10 0 16 -26 11 -43 -8 -13 -14 -14 -21 -5 -30 7 -7 17 -12 23 -12 5 0 16 -9 23 -20 7 -11 18 -20 25 -20 6 0 17 -11 23 -25 11 -23 10 -24 -7 -14 -24 13 -59 3 -59 -17 0 -22 -43 -34 -133 -36 l-82 -2 90 -6 c50 -3 80 -7 68 -8 -28 -2 -29 -12 -4 -43 10 -13 22 -37 28 -54 7 -21 18 -32 36 -35 21 -4 24 -8 17 -20 -12 -19 -13 -70 -1 -89 6 -9 23 -12 54 -10 29 3 43 1 37 -5 -6 -6 -10 -18 -10 -27 0 -9 -7 -22 -15 -29 -33 -28 -1 -53 100 -79 17 -4 40 -13 52 -19 32 -17 58 -15 78 8 10 11 24 20 32 20 8 0 43 9 79 21 39 13 80 19 102 16 22 -2 56 3 85 15 43 16 51 17 69 4 11 -8 27 -12 34 -9 8 3 25 -2 39 -11 31 -20 145 -34 145 -17 0 6 10 11 23 11 12 0 42 13 66 29 24 16 50 27 57 24 9 -3 14 2 14 15 0 26 23 34 48 16 13 -9 31 -12 46 -8 15 3 34 -1 50 -11 17 -12 36 -15 56 -11 16 3 44 9 60 12 28 6 30 4 30 -25 0 -26 4 -31 25 -31 18 0 25 5 25 20 0 11 4 20 9 20 15 0 23 -18 11 -25 -17 -11 -11 -47 17 -112 18 -41 34 -63 45 -63 9 0 20 -4 23 -10 10 -16 55 -12 55 5 0 26 -21 61 -43 70 -18 9 -22 18 -20 53 2 50 15 69 46 74 14 2 21 10 21 21 -2 23 19 22 41 -3 22 -24 32 -25 52 -4 9 8 21 13 27 11 6 -2 76 -19 156 -37 131 -30 192 -50 147 -50 -9 0 -20 -7 -25 -16 -8 -14 -10 -14 -25 1 -21 21 -120 16 -144 -7 -15 -16 -11 -58 6 -58 5 0 6 -11 4 -24 -4 -20 0 -24 36 -30 40 -6 47 -15 42 -53 -1 -8 10 -13 29 -13 17 0 29 -5 27 -11 -1 -7 11 -15 27 -20 16 -4 32 -12 35 -17 3 -5 33 -14 66 -20 33 -7 61 -17 63 -22 2 -5 19 -17 37 -26 24 -11 31 -20 28 -34 -4 -14 3 -19 36 -25 22 -3 45 -12 50 -19 6 -7 32 -14 58 -15 72 -3 214 20 220 36 3 7 13 13 23 13 28 0 33 18 10 32 -34 21 -25 37 18 31 20 -3 39 -10 40 -15 2 -4 17 -8 32 -8 16 0 32 -4 35 -10 3 -5 13 -10 21 -10 19 0 19 59 -1 66 -8 4 -15 12 -15 19 0 7 -6 18 -14 24 -20 16 -26 62 -11 77 15 15 19 144 4 144 -5 0 -9 6 -9 14 0 8 -9 21 -21 29 -11 9 -16 16 -9 19 6 2 12 10 13 18 2 8 6 20 10 26 8 14 -69 84 -93 84 -38 0 -29 19 36 76 89 79 94 82 136 78 21 -2 40 1 43 6 4 6 15 10 26 10 10 0 19 3 19 8 0 4 15 6 32 5 18 -1 33 -2 33 -3 0 -1 11 -3 24 -6 13 -2 36 -14 52 -25 26 -18 33 -19 59 -7 17 7 30 19 30 25 0 7 5 13 10 13 6 0 10 6 10 14 0 8 7 16 15 20 21 8 21 84 -1 93 -8 3 -20 16 -24 29 -6 14 -22 26 -41 32 l-32 8 49 31 c93 58 169 97 155 80 -8 -10 -11 -28 -8 -46 4 -17 0 -36 -8 -47 -19 -25 -19 -73 0 -80 8 -4 13 -9 10 -13 -9 -15 27 -53 46 -48 14 4 19 0 19 -13 0 -11 15 -26 37 -37 20 -10 40 -25 44 -33 4 -8 12 -26 18 -40 18 -39 35 -65 53 -84 9 -9 15 -22 12 -29 -5 -14 78 -57 109 -57 9 0 17 -6 17 -13 0 -20 88 -55 140 -56 24 -1 60 4 80 11 19 7 37 13 40 13 3 1 23 7 45 13 22 6 65 12 95 13 62 2 112 28 130 68 9 20 8 28 -10 45 -18 18 -32 21 -105 20 -83 -1 -99 7 -49 26 16 6 27 20 30 40 4 16 12 30 19 30 20 0 24 -11 12 -31 -17 -28 6 -48 34 -31 17 11 24 11 37 0 10 -8 29 -19 44 -25 24 -11 26 -14 17 -50 -13 -57 -12 -60 23 -67 24 -5 37 -1 55 16 13 12 23 28 23 35 0 10 4 11 13 4 57 -47 77 -61 88 -61 7 0 20 -7 30 -16 12 -11 25 -13 41 -8 13 4 29 7 36 5 8 -1 19 3 27 9 10 8 18 5 33 -15 17 -22 28 -25 77 -25 47 0 55 -2 46 -13 -12 -15 -7 -155 7 -169 9 -9 82 12 82 24 0 4 6 8 14 8 20 0 28 28 15 52 -11 21 -5 68 10 68 15 0 22 -32 10 -47 -10 -11 -9 -17 4 -30 14 -14 19 -14 56 4 38 19 41 19 41 3 0 -10 -7 -23 -15 -30 -25 -21 -18 -63 19 -103 18 -20 41 -37 49 -37 9 0 19 -9 22 -20 3 -11 13 -20 20 -20 8 0 33 -13 57 -29 24 -16 59 -31 78 -34 19 -2 50 -11 68 -18 26 -11 34 -11 41 -1 6 9 12 7 26 -8 25 -27 53 -25 65 4 11 29 26 40 35 26 10 -17 36 -11 56 13 24 28 23 39 -1 70 -25 32 -25 41 0 27 12 -6 28 -10 38 -9 9 1 35 -1 56 -6 30 -6 47 -4 74 11 l34 18 27 -32 c36 -44 91 -40 91 8 0 18 63 54 95 55 11 0 45 -10 75 -22 58 -22 154 -28 198 -12 17 7 22 14 17 29 -5 15 -2 20 14 20 11 0 23 5 26 10 4 7 12 7 25 0 27 -15 51 -12 92 9 20 10 61 21 91 24 49 6 55 5 76 -19 15 -18 28 -23 39 -18 9 4 33 9 52 12 19 2 40 10 45 16 6 7 22 16 38 20 15 3 27 11 27 16 0 6 6 10 13 10 20 0 81 48 90 71 6 17 10 19 21 10 14 -12 46 -5 46 10 0 5 9 9 20 9 13 0 26 12 37 35 33 68 -18 124 -86 95 -17 -7 -31 -19 -31 -26 0 -9 -11 -14 -30 -14 l-29 0 24 25 c33 32 31 48 -8 75 -19 13 -39 35 -45 49 -29 67 -44 80 -89 76 -18 -2 -33 1 -33 5 0 5 21 11 48 13 l47 3 -54 2 c-59 2 -57 -4 -26 82 11 31 15 62 11 100 -3 30 -5 70 -5 88 0 36 -16 72 -32 72 -27 0 -79 -54 -93 -98 -17 -51 -22 -155 -11 -213 5 -26 3 -38 -9 -48 -9 -8 -16 -19 -16 -26 0 -7 -7 -18 -15 -25 -13 -11 -15 -8 -15 13 0 14 5 29 10 32 12 7 13 25 2 42 -6 9 -17 10 -45 2 -21 -5 -43 -7 -49 -3 -7 4 -37 9 -67 11 -62 3 -78 14 -98 70 -23 62 -22 67 21 74 22 3 45 14 51 23 7 9 19 16 27 16 25 0 38 23 38 67 0 24 9 60 21 83 17 32 21 58 21 128 0 86 0 88 31 112 17 14 63 51 101 82 39 32 74 58 79 58 4 0 1 -13 -8 -30 -9 -17 -15 -51 -14 -78 1 -26 -3 -57 -9 -69 -16 -30 -15 -58 3 -73 21 -18 19 -40 -10 -82 -25 -38 -32 -68 -16 -68 5 0 23 11 40 25 27 24 35 25 94 19 63 -6 64 -6 86 24 19 27 20 34 9 52 -7 11 -20 20 -28 20 -9 0 -20 14 -25 32 -9 30 -14 33 -60 38 -35 3 -44 7 -32 12 10 5 16 12 13 16 -6 9 43 37 58 33 21 -5 35 37 35 106 -1 50 4 79 15 95 20 28 21 78 3 78 -8 0 -20 11 -27 25 -7 14 -18 25 -24 25 -17 1 -56 37 -56 52 0 24 -48 44 -70 30 -31 -19 -49 -5 -43 33 5 32 3 34 -28 42 -25 7 -35 15 -37 34 -5 30 -20 49 -39 49 -11 0 -14 -7 -11 -24 4 -20 0 -26 -16 -28 -26 -4 -34 -38 -12 -50 9 -5 14 -13 11 -18 -3 -5 5 -24 18 -43 13 -19 29 -48 36 -65 7 -16 23 -34 37 -40 13 -7 24 -17 25 -24 1 -7 2 -24 2 -38 1 -15 11 -29 24 -35 31 -13 38 -35 11 -35 -46 0 -263 42 -269 52 -4 6 10 28 32 48 21 20 39 42 39 48 0 7 5 12 10 12 6 0 10 10 10 23 -1 28 -36 107 -49 107 -28 0 -41 -14 -41 -46 0 -27 -5 -36 -24 -44 -14 -5 -29 -17 -35 -28 -5 -10 -25 -23 -45 -29 -31 -10 -37 -8 -56 12 l-21 22 41 7 c22 3 40 11 40 16 0 6 11 10 25 10 33 0 32 10 -5 45 -32 31 -32 56 -1 85 23 22 41 57 41 79 0 11 5 23 11 27 6 3 9 19 5 35 -3 17 -1 29 5 29 6 0 8 26 5 67 -7 102 -17 143 -37 156 -11 7 -19 17 -19 24 0 7 -4 13 -10 13 -5 0 -10 6 -10 14 0 7 -7 19 -15 26 -8 7 -15 20 -15 29 0 9 -13 22 -30 29 -16 8 -30 19 -30 26 0 14 -42 56 -56 56 -5 0 -22 -12 -38 -26 -33 -31 -46 -21 -46 34 0 28 3 32 25 32 20 0 27 6 31 28 3 15 15 32 26 37 28 14 68 119 68 179 0 29 -8 65 -20 90 l-21 41 33 110 c37 123 38 124 146 148 52 11 64 11 73 0 8 -9 8 -13 0 -13 -6 0 -11 -8 -11 -19 0 -10 -7 -24 -15 -31 -34 -28 -2 -90 46 -90 16 0 37 4 47 9 9 5 25 12 35 15 11 4 17 16 17 36 0 40 18 39 22 -2 3 -30 7 -33 47 -40 25 -4 49 -4 55 1 6 4 23 11 38 15 16 4 34 18 42 35 8 15 32 36 53 45 61 27 67 32 73 53 3 11 20 33 38 48 35 29 40 49 17 62 -13 8 -13 12 0 37 8 16 15 35 15 42 0 8 5 14 11 14 6 0 9 14 7 33 -3 31 -4 32 -48 30 -30 -1 -48 -8 -55 -19 -5 -10 -18 -25 -27 -35 -17 -18 -18 -18 -45 7 -24 22 -32 24 -87 18 -35 -3 -73 -14 -88 -25 -15 -10 -32 -19 -37 -19 -19 0 -23 -22 -11 -66 11 -39 11 -47 -5 -64 -10 -11 -28 -20 -40 -20 -11 0 -27 -6 -33 -12 -7 -7 -1 19 14 57 14 39 30 81 35 95 13 37 18 49 47 120 22 51 33 66 51 68 13 2 27 -2 31 -8 6 -9 16 -10 36 -3 16 6 39 7 50 2 15 -5 26 -2 38 12 20 24 20 28 -4 59 -30 38 -26 55 12 55 25 0 33 5 36 20 9 46 52 55 52 11 0 -12 7 -32 16 -45 11 -15 14 -33 10 -53 -3 -16 -3 -41 0 -54 8 -31 42 -32 48 -1 3 12 9 45 14 72 8 42 11 46 17 27 5 -14 14 -22 24 -20 17 4 31 54 35 132 2 46 4 49 44 67 33 15 42 25 42 45 0 13 7 27 15 30 8 4 15 16 15 27 0 12 11 32 24 46 45 49 55 96 44 201 -5 56 -15 101 -24 111 -7 8 -14 23 -14 31 0 9 -10 22 -22 31 -31 20 -78 123 -78 170 0 11 -13 18 -46 23 -32 4 -50 13 -61 30 -18 28 -30 30 -54 8 -17 -15 -19 -15 -34 0 -9 9 -22 16 -29 16 -22 0 -78 -67 -81 -97 -2 -30 -23 -86 -24 -65 -1 6 -8 12 -16 12 -16 0 -21 -38 -7 -56 4 -5 0 -1 -10 8 -9 10 -21 18 -27 18 -15 0 -41 -41 -41 -66 0 -21 -35 -44 -69 -44 -9 0 -36 9 -59 20 -22 11 -48 20 -56 20 -18 0 -31 19 -28 41 3 20 -46 35 -61 20 -19 -19 -46 -12 -105 28 -79 54 -117 59 -161 22 -33 -29 -33 -30 -17 -61 8 -18 18 -47 22 -65 5 -28 2 -34 -15 -40 -17 -5 -21 -15 -21 -48 0 -24 -7 -53 -16 -66 -22 -31 -22 -100 0 -117 11 -8 13 -14 7 -19 -6 -3 -10 -27 -8 -53 3 -43 6 -47 47 -69 25 -13 50 -30 56 -38 6 -8 26 -15 45 -15 35 0 64 -22 119 -90 13 -16 30 -30 37 -30 7 0 13 -7 13 -15 0 -9 9 -15 25 -15 41 0 32 -18 -31 -68 -23 -17 -51 -32 -61 -32 -11 0 -28 -9 -39 -21 l-19 -21 -5 24 c-7 26 -44 33 -46 8 0 -8 -4 -22 -8 -31 -4 -9 -6 -20 -5 -25 1 -5 1 -22 0 -38 l-1 -29 -27 37 c-28 37 -29 37 -87 32 -46 -3 -64 -10 -87 -32 -16 -15 -29 -35 -29 -45 0 -9 -6 -35 -14 -57 -9 -24 -12 -57 -9 -81 5 -36 10 -43 33 -48 42 -8 100 -60 100 -89 0 -13 9 -29 20 -36 11 -7 20 -20 20 -28 0 -9 6 -24 13 -34 13 -17 15 -17 45 -2 l31 16 -15 -47 c-8 -27 -19 -67 -25 -90 -11 -42 -22 -53 -34 -33 -13 22 -34 8 -54 -37 -26 -59 -63 -90 -81 -68 -9 11 -9 15 -1 15 6 0 11 12 11 27 0 15 9 46 21 70 26 54 22 77 -13 81 -23 3 -33 -5 -60 -43 -32 -45 -37 -61 -57 -177 -12 -72 -14 -75 -63 -88 -46 -13 -96 -62 -130 -129 -39 -75 -43 -81 -49 -81 -4 0 -12 14 -18 31 -8 24 -15 29 -30 24 -16 -5 -22 -1 -26 22 -4 15 -10 36 -16 45 -5 10 -9 29 -9 43 0 14 -7 28 -15 31 -8 4 -15 16 -15 28 0 11 -7 46 -15 76 -9 30 -17 91 -20 135 -2 63 -7 81 -19 83 -9 2 -16 13 -16 26 0 31 -23 59 -44 55 -18 -4 -37 -36 -104 -179 -77 -164 -92 -212 -85 -269 5 -44 3 -51 -9 -46 -19 7 -70 -37 -67 -57 5 -22 -19 -55 -46 -62 -18 -5 -25 -13 -25 -31 0 -14 -2 -25 -4 -25 -20 0 -82 37 -110 66 -41 42 -77 44 -86 4 -6 -23 -6 -24 -12 -4 -4 16 -14 21 -42 22 -20 1 -36 -3 -36 -8 0 -6 -6 -10 -14 -10 -16 0 -36 -50 -36 -91 0 -32 -6 -35 -34 -14 -18 14 -18 16 -3 33 9 10 17 24 17 31 0 7 13 26 30 44 16 18 30 40 30 50 0 21 33 23 54 2 17 -17 56 -20 56 -4 0 5 16 17 35 25 44 18 59 53 50 114 -13 90 -76 230 -104 230 -7 0 -31 18 -53 39 -43 43 -99 66 -189 76 l-56 7 -23 -36 c-12 -20 -19 -44 -16 -53 4 -9 -1 -24 -10 -35 -17 -18 -18 -17 -46 24 -33 50 -31 80 8 111 19 14 24 27 22 50 -4 43 21 56 67 34 20 -9 46 -17 60 -17 13 0 36 -5 50 -10 42 -16 69 4 62 46 -13 77 -69 177 -147 259 -41 44 -85 94 -97 111 l-22 32 19 109 c11 61 27 146 35 189 8 44 15 92 15 107 l0 28 58 -6 c41 -5 63 -14 80 -31 13 -13 27 -24 32 -24 6 0 10 -8 10 -19 0 -10 9 -21 20 -24 11 -3 20 -14 20 -25 0 -20 29 -52 49 -52 19 0 34 52 32 109 -2 39 -11 66 -29 94 -15 22 -25 50 -24 63 2 12 -2 25 -7 29 -6 3 -11 21 -11 39 0 18 -11 53 -25 77 -14 24 -33 60 -43 79 -53 102 -50 100 -124 100 l-68 0 0 -37 c0 -21 -7 -47 -15 -57 -21 -27 -19 -60 5 -81 11 -10 20 -25 21 -34 0 -9 6 -32 13 -51 10 -29 9 -40 -3 -66 l-16 -30 -97 68 c-53 38 -99 77 -103 87 -3 9 -13 26 -23 37 -19 20 -42 88 -42 122 0 12 -8 23 -19 27 -11 3 -22 13 -25 21 -3 8 -2 12 4 9 18 -11 10 12 -10 30 -11 10 -20 25 -20 34 0 17 -42 41 -70 41 -9 0 -25 9 -35 20 -10 11 -31 20 -46 20 -38 0 -119 22 -119 32 0 4 -7 8 -15 8 -8 0 -15 -4 -15 -9 0 -5 -10 -11 -22 -13 -21 -3 -24 -10 -29 -73 -5 -68 -22 -127 -42 -153 -5 -7 -10 -27 -9 -44 0 -17 -6 -41 -14 -52 -8 -11 -14 -35 -14 -53 0 -22 -11 -48 -34 -78 -49 -63 -58 -148 -25 -240 20 -56 21 -70 11 -98 -16 -44 -15 -62 3 -77 8 -7 15 -19 15 -27 0 -22 -84 -137 -114 -157 -29 -18 -33 -41 -12 -65 7 -9 17 -43 23 -76 l9 -61 -50 1 c-43 0 -51 -3 -54 -20 -3 -11 -9 -23 -16 -27 -19 -13 -89 -9 -105 6 -10 8 -52 16 -108 19 -90 6 -93 5 -130 -23 -73 -56 -113 -93 -113 -106 0 -20 -43 -82 -61 -87 -10 -3 -25 -21 -34 -41 -16 -33 -16 -39 -1 -76 19 -48 21 -80 4 -80 -7 0 -57 13 -112 28 -96 28 -99 29 -111 66 -16 45 -42 76 -66 76 -12 0 -16 6 -12 18 2 10 -5 26 -16 36 -18 16 -21 31 -21 98 0 61 -4 82 -17 96 -10 10 -28 38 -40 62 -24 50 -58 74 -118 84 -92 15 -115 45 -115 146 0 32 -4 43 -18 47 -11 2 -26 26 -38 55 -10 28 -29 57 -41 65 -13 9 -23 21 -23 28 0 6 -25 17 -54 24 -56 12 -61 22 -34 58 24 30 -40 73 -109 73 -13 0 -23 6 -23 15 0 28 -24 65 -42 65 -11 0 -17 4 -14 8 9 14 -16 103 -30 109 -11 4 -13 19 -8 67 4 43 1 74 -10 106 -10 29 -12 48 -6 54 6 6 10 17 10 25 0 8 10 36 23 62 18 38 26 46 43 43 12 -3 26 1 33 10 8 9 24 16 36 16 20 0 35 17 35 40 0 7 -23 14 -97 26 -25 5 -36 1 -53 -19z m2517 -497 c51 -36 94 -70 97 -77 5 -13 -63 -404 -73 -416 -4 -4 -15 -1 -25 6 -12 9 -18 29 -20 65 -1 29 1 52 6 52 4 0 8 10 8 21 0 12 8 27 17 34 14 10 17 29 18 97 0 77 -2 85 -28 113 -15 17 -30 38 -33 48 -3 10 -17 22 -30 27 -25 10 -44 45 -44 81 0 26 -3 27 107 -51z m2048 -447 c12 -16 14 -16 39 0 25 17 26 17 26 -4 0 -11 8 -34 17 -49 19 -33 18 -36 -62 -244 -49 -126 -64 -150 -89 -140 -9 3 -22 -1 -30 -9 -8 -8 -36 -18 -62 -22 -26 -3 -53 -9 -60 -12 -10 -4 -14 4 -14 25 0 16 -7 35 -15 42 -18 15 -19 36 -4 78 10 28 13 30 47 25 20 -3 49 -13 63 -21 55 -31 79 13 34 62 -13 14 -22 32 -19 40 6 15 -34 48 -48 40 -4 -3 -8 2 -8 10 0 9 7 16 15 16 10 0 15 10 15 29 0 16 7 34 15 41 9 7 14 19 11 26 -4 11 61 74 77 74 3 0 8 -10 10 -22 4 -20 4 -19 6 5 1 31 18 35 36 10z m-267 -250 c-3 -13 -7 -12 -27 4 -21 17 -22 20 -7 32 9 7 16 21 17 30 0 9 5 1 10 -17 6 -19 9 -41 7 -49z m-1750 -458 c22 -26 20 -45 -6 -73 -51 -54 -83 -95 -96 -126 -8 -17 -32 -51 -55 -74 -23 -24 -39 -47 -36 -52 3 -4 -4 -6 -15 -3 -18 5 -17 9 19 59 21 30 42 71 46 92 4 20 16 45 26 55 11 10 22 32 26 48 3 16 10 32 14 35 5 3 9 12 9 20 0 8 8 26 17 40 16 25 17 25 30 8 7 -11 16 -23 21 -29z m-1588 -35 c93 -27 108 -40 92 -75 -16 -34 -15 -71 2 -103 31 -59 84 -179 95 -214 7 -20 19 -42 27 -48 7 -7 14 -27 14 -46 0 -46 -45 -77 -121 -82 -51 -4 -58 -7 -63 -28 -4 -16 -14 -24 -27 -24 -25 0 -23 -21 9 -110 20 -53 20 -55 2 -78 -11 -13 -24 -39 -30 -59 -12 -33 -11 -36 21 -63 34 -28 34 -28 55 -9 18 17 30 19 77 13 38 -5 57 -11 57 -20 0 -8 3 -14 8 -14 4 0 8 -20 9 -45 1 -31 -2 -43 -10 -39 -7 2 -21 -11 -31 -31 -10 -19 -27 -37 -37 -40 -23 -8 -25 -38 -3 -56 9 -7 31 -13 50 -13 19 0 34 -1 34 -3 0 -7 -54 -88 -66 -100 -8 -9 -15 -10 -19 -3 -3 5 -14 10 -24 10 -10 0 -24 7 -31 15 -14 17 -51 17 -57 0 -2 -6 12 -28 31 -50 35 -39 38 -55 10 -55 -20 0 -17 -33 6 -58 21 -23 26 -48 10 -54 -5 -1 -7 -13 -3 -26 3 -15 11 -21 20 -18 10 4 13 0 11 -12 -2 -9 -13 -18 -26 -20 -16 -3 -20 0 -16 12 9 23 -12 44 -57 58 -22 6 -39 12 -39 13 0 16 27 73 39 82 18 13 21 11 -51 33 -21 6 -38 16 -38 21 0 5 -13 9 -30 9 -16 0 -30 -4 -30 -10 0 -5 -7 -10 -15 -10 -23 0 -18 -26 11 -57 25 -27 25 -28 5 -37 -41 -18 -7 -126 39 -126 9 0 25 -9 34 -19 23 -25 91 -26 102 -2 5 12 8 9 15 -13 7 -26 4 -33 -20 -55 -35 -32 -47 -67 -31 -86 10 -12 9 -15 -9 -15 -30 0 -26 -21 14 -63 19 -20 35 -43 35 -51 0 -20 78 -26 97 -8 12 12 12 18 -2 38 -21 32 -20 33 22 30 32 -3 43 -11 76 -57 55 -77 62 -90 40 -82 -10 3 -23 10 -30 15 -7 6 -26 2 -52 -11 -22 -12 -56 -21 -76 -21 -28 0 -35 -4 -35 -19 0 -11 4 -22 10 -26 5 -3 7 -12 4 -20 -4 -8 -10 -12 -15 -9 -11 6 -49 -13 -49 -26 0 -5 7 -15 15 -24 13 -13 13 -16 0 -30 -9 -9 -13 -24 -10 -38 4 -19 -9 -36 -85 -100 -90 -78 -110 -90 -110 -64 0 8 -19 24 -42 36 -24 12 -46 27 -50 33 -4 6 -28 13 -55 16 -45 6 -48 8 -51 36 -2 17 -7 41 -11 55 -11 31 -28 96 -36 133 -4 21 -11 27 -30 27 -14 0 -25 -4 -25 -10 0 -5 -8 -10 -17 -11 -10 0 -33 -18 -52 -40 -30 -35 -44 -70 -56 -139 -2 -14 -7 -40 -11 -58 -5 -27 -3 -36 15 -48 30 -21 26 -41 -8 -49 -16 -3 -35 -13 -41 -21 -10 -11 -8 -15 10 -22 19 -7 20 -9 6 -21 -9 -8 -16 -23 -16 -35 0 -11 -7 -29 -14 -39 -15 -19 -10 -29 -109 215 -40 95 -43 108 -29 122 9 9 15 33 15 61 0 29 4 44 11 40 6 -3 19 -8 28 -11 10 -3 20 -14 23 -24 14 -43 55 -30 55 16 0 12 7 24 15 28 8 3 15 16 15 30 0 28 62 100 88 101 54 4 55 4 42 20 -9 10 -9 15 -1 15 6 0 11 15 11 33 0 28 -7 39 -44 65 -24 18 -53 32 -64 32 -10 0 -24 11 -30 24 -12 27 -73 43 -114 31 l-23 -7 21 16 c15 10 23 31 27 66 8 63 15 76 32 54 14 -20 45 -13 45 11 0 9 -18 33 -40 55 -22 22 -40 43 -40 47 0 4 -12 17 -27 27 -25 18 -26 18 -39 1 -10 -13 -10 -23 -3 -37 19 -36 0 -31 -41 9 -34 34 -39 45 -31 64 7 21 0 32 -55 86 -64 62 -77 83 -49 83 8 0 15 7 15 15 0 22 -65 91 -105 109 -44 21 -63 59 -53 111 4 22 7 57 7 77 1 32 -3 39 -24 44 -32 8 -65 -19 -65 -52 0 -13 -9 -38 -19 -55 -16 -27 -26 -32 -63 -34 -24 -2 -64 -6 -90 -10 -28 -5 -73 -2 -114 5 -57 11 -72 19 -109 56 -54 54 -70 98 -55 153 13 49 21 54 69 46 27 -4 42 -13 49 -30 10 -21 18 -24 57 -23 36 0 45 4 45 18 0 26 -21 80 -31 80 -5 0 -9 6 -9 14 0 8 -7 21 -15 30 -14 14 -14 17 6 37 15 15 19 28 14 47 -4 15 -11 29 -16 30 -5 2 -9 12 -9 23 0 10 -9 28 -20 39 -11 11 -20 27 -20 35 0 17 25 20 35 5 8 -13 48 -13 61 0 7 7 29 1 70 -19 95 -47 150 -71 162 -71 6 0 17 9 25 20 8 11 16 17 19 15 3 -3 27 0 54 6 27 6 68 11 91 10 38 -2 49 3 90 42 66 61 165 109 228 111 32 1 75 24 75 40 0 5 10 29 21 53 20 42 21 45 4 63 -18 19 -17 20 13 20 48 0 134 21 150 36 7 8 30 14 50 14 33 0 77 18 166 67 16 8 33 28 39 43 12 31 5 31 147 -10z m1372 -423 c27 -34 20 -207 -8 -207 -8 0 -14 5 -14 10 0 14 -93 13 -107 -1 -14 -14 -34 -3 -27 15 7 18 -11 29 -36 21 -12 -4 -20 -15 -20 -27 0 -12 -3 -19 -6 -15 -12 12 -64 -23 -64 -44 0 -11 -10 -33 -22 -49 -17 -23 -19 -32 -9 -44 8 -10 9 -16 1 -21 -5 -3 -10 1 -10 9 0 9 -11 18 -25 22 -24 6 -25 7 -9 25 11 12 15 29 11 51 -3 21 1 39 10 50 20 22 7 41 -23 35 -24 -4 -24 -3 -24 69 l0 74 54 0 c35 0 60 5 70 15 8 8 25 15 38 16 13 0 43 7 68 14 61 18 130 10 152 -18z m-399 -26 c5 -5 6 -41 2 -79 -6 -61 -10 -71 -29 -76 -18 -4 -24 -17 -34 -78 -16 -90 -52 -138 -65 -87 -4 17 -12 20 -30 17 -22 -4 -26 -1 -31 33 -6 37 -47 92 -75 101 -11 3 -7 12 15 36 50 55 74 85 74 94 0 4 11 8 25 8 13 0 28 6 32 13 20 34 89 45 116 18z m-603 -86 c23 -8 55 -15 70 -15 15 0 33 -7 40 -15 7 -8 20 -15 29 -15 9 0 30 -9 47 -19 18 -11 45 -21 60 -23 26 -3 27 -4 10 -20 -9 -10 -16 -28 -14 -40 2 -19 9 -23 39 -23 44 0 70 -24 62 -56 -8 -32 -28 -54 -79 -86 -24 -15 -45 -35 -47 -45 -5 -18 -47 -26 -47 -9 0 19 -41 23 -66 6 -30 -19 -40 -14 -49 24 -3 16 -13 35 -21 42 -19 15 -18 78 2 119 16 31 16 33 -8 55 -14 12 -30 37 -38 54 -7 17 -20 31 -29 31 -20 0 -41 19 -41 37 0 17 28 16 80 -2z m455 -341 c-14 -13 -28 -24 -31 -24 -3 0 -12 -7 -21 -15 -18 -18 -28 -13 -20 10 4 8 16 15 27 15 13 0 20 7 20 20 0 10 10 30 23 42 l22 23 3 -23 c2 -15 -6 -32 -23 -48z m1029 -7 c15 -11 17 -21 11 -55 -4 -23 -10 -42 -15 -42 -14 0 -21 -32 -9 -46 9 -11 8 -15 -4 -20 -9 -3 -18 -23 -22 -45 -5 -28 -12 -39 -24 -39 -12 0 -22 -13 -29 -39 -16 -52 -16 -54 12 -84 29 -31 26 -78 -5 -70 -10 3 -21 14 -24 24 -4 10 -10 19 -15 19 -5 0 -20 11 -34 24 -30 27 -35 78 -11 102 8 9 15 25 15 37 0 27 10 42 33 50 19 7 24 37 6 37 -15 0 -4 117 12 136 10 12 33 19 70 23 8 0 23 -5 33 -12z m-598 -22 c7 -9 34 -14 81 -14 58 0 77 4 98 21 22 17 31 19 46 10 10 -7 30 -12 44 -12 14 0 25 -5 25 -12 0 -18 -86 -93 -102 -90 -8 1 -21 -10 -28 -25 -8 -15 -20 -36 -28 -45 -11 -13 -12 -24 -4 -48 6 -16 10 -30 8 -30 -2 0 -18 5 -36 12 -31 10 -32 12 -12 19 28 10 29 45 2 61 -11 7 -20 18 -20 25 0 35 -64 -3 -75 -44 -3 -15 -11 -31 -17 -34 -15 -10 -38 0 -38 17 0 7 -9 19 -20 27 -12 8 -18 20 -15 30 4 8 2 18 -4 22 -6 3 -11 15 -11 26 0 10 -5 28 -12 38 -10 16 -7 23 17 45 23 21 35 26 59 20 17 -3 36 -12 42 -19z m-980 -320 c17 -9 40 -13 57 -9 21 4 27 2 27 -11 0 -23 40 -65 62 -65 18 0 75 -87 70 -107 -1 -7 8 -15 21 -18 34 -9 52 -42 35 -65 -7 -10 -85 -75 -173 -145 -145 -116 -160 -125 -172 -109 -7 10 -13 24 -13 31 0 7 -4 13 -10 13 -5 0 -10 5 -10 10 0 6 6 10 14 10 17 0 46 43 46 68 0 11 7 25 16 33 22 18 44 64 44 92 0 20 4 23 25 19 54 -10 74 51 30 92 -18 16 -21 26 -13 34 23 23 0 40 -66 47 -36 4 -66 10 -66 12 0 6 43 83 46 83 1 0 15 -7 30 -15z m3391 -141 c71 -11 109 -21 106 -28 -2 -6 -44 -42 -91 -79 l-87 -69 -6 29 c-8 39 -37 93 -54 99 -11 5 -35 53 -35 72 0 2 12 2 28 -1 15 -3 77 -13 139 -23z m-3048 -230 c33 -34 40 -74 22 -119 -16 -38 -1 -72 34 -81 26 -6 32 -18 15 -29 -5 -3 -11 -16 -11 -28 -1 -18 -2 -19 -6 -4 -7 26 -44 37 -100 31 -27 -4 -109 3 -191 15 -79 12 -146 21 -149 21 -3 0 53 46 123 102 71 56 140 112 154 125 33 31 38 29 43 -14 4 -37 4 -37 6 7 2 42 3 44 17 25 8 -11 28 -34 43 -51z m267 -100 c22 -9 48 -13 67 -8 26 5 29 4 22 -12 -16 -40 -16 -52 2 -92 11 -27 24 -42 36 -42 14 0 16 -4 7 -19 -5 -11 -10 -31 -10 -45 0 -23 4 -26 38 -28 20 -1 48 -1 61 0 22 1 23 -1 10 -13 -8 -8 -26 -15 -39 -14 -14 0 -50 1 -80 2 l-55 2 2 -54 c2 -31 9 -61 18 -71 19 -21 19 -40 0 -40 -8 0 -22 17 -30 38 -9 20 -23 42 -31 49 -14 10 -14 19 -4 66 15 65 9 96 -25 128 -14 14 -25 35 -25 51 0 15 -6 31 -12 35 -7 4 -18 17 -24 28 -14 25 -47 31 -64 10 -7 -8 -16 -15 -21 -15 -11 0 -12 54 -1 64 10 11 115 -2 158 -20z m-1920 -144 c-8 -53 2 -80 30 -80 17 0 24 -6 24 -20 0 -10 8 -23 17 -29 15 -8 15 -13 5 -36 -22 -48 -9 -115 23 -115 11 0 12 -5 5 -26 -17 -44 -13 -54 23 -54 17 0 49 4 70 9 20 5 37 8 37 6 0 -1 29 -72 64 -158 l64 -155 -312 230 c-171 127 -311 235 -311 240 0 22 51 77 72 78 12 0 24 4 27 9 3 4 35 7 70 5 72 -3 88 6 57 33 -15 12 -18 20 -9 30 5 7 8 25 5 40 -3 15 0 37 5 47 11 19 11 19 25 0 9 -12 12 -32 9 -54z m1446 4 l126 -18 -44 -28 c-25 -15 -47 -28 -49 -28 -3 0 -27 -14 -55 -31 -28 -17 -52 -30 -54 -28 -27 39 -76 111 -90 133 l-18 29 28 -5 c16 -3 86 -14 156 -24z m-1430 -435 c153 -113 288 -214 300 -222 13 -9 16 -15 8 -12 -8 2 -71 16 -140 31 -134 29 -154 37 -145 64 6 17 -35 60 -57 60 -5 0 -22 14 -38 31 -19 22 -35 30 -48 27 -13 -4 -19 -1 -18 9 1 15 -14 27 -45 37 -28 8 -107 120 -115 161 -5 30 -4 36 7 30 7 -5 138 -102 291 -216z m3119 -202 c-13 -13 -15 1 -4 30 7 17 8 17 11 -1 2 -10 -1 -23 -7 -29z"/>
<path d="M6328 3964 c-4 -3 -53 -7 -111 -9 -140 -4 -153 -13 -96 -66 27 -25 39 -29 86 -29 30 0 69 6 86 14 18 8 46 18 62 23 33 11 43 36 25 58 -12 15 -42 20 -52 9z"/>
<path d="M5995 3887 c-22 -23 -51 -64 -65 -92 -14 -27 -36 -54 -48 -60 -13 -5 -25 -21 -28 -35 -12 -52 -45 -111 -84 -147 -33 -31 -40 -45 -40 -75 0 -34 3 -38 24 -38 14 0 28 5 31 10 3 6 17 10 30 10 15 0 33 11 46 29 12 16 27 27 35 24 7 -2 19 5 26 16 7 12 18 21 25 21 7 0 13 6 13 14 0 22 19 30 35 16 12 -10 15 -9 16 6 2 70 13 110 35 132 13 14 24 33 24 43 0 12 7 19 18 19 18 0 42 37 42 65 0 20 -62 85 -80 85 -8 0 -33 -19 -55 -43z"/>
</g>
<g id="layer102" fill="#b52e16" stroke="none">
<path d="M2026 4813 c-5 -11 -1 -22 10 -30 23 -17 33 -16 40 2 4 8 18 15 33 16 l26 1 -30 13 c-41 19 -72 18 -79 -2z"/>
<path d="M1929 4761 c-13 -10 -34 -21 -46 -25 -42 -13 -88 -82 -121 -179 -29 -87 -30 -98 -21 -158 18 -111 19 -139 8 -139 -11 0 -8 -69 6 -160 3 -19 7 -75 10 -125 2 -49 7 -144 12 -210 4 -66 7 -142 6 -170 -1 -40 1 -45 8 -26 5 13 22 38 37 56 15 17 32 40 38 50 15 27 44 12 44 -22 l0 -28 18 22 c15 19 22 21 52 13 l35 -10 -36 4 c-27 3 -38 0 -47 -15 -18 -28 -32 -23 -32 11 0 20 -5 30 -15 30 -8 0 -15 -4 -15 -9 0 -4 -16 -29 -35 -54 -19 -25 -35 -55 -35 -67 0 -18 -3 -19 -20 -10 -17 9 -25 6 -45 -14 -14 -14 -45 -37 -70 -52 -50 -29 -75 -58 -75 -89 0 -11 -20 -40 -45 -65 -24 -25 -44 -53 -45 -63 0 -10 -9 -30 -20 -45 -16 -22 -19 -40 -16 -92 6 -131 26 -162 74 -118 25 24 88 45 76 27 -3 -5 -15 -9 -27 -9 -13 0 -34 -13 -49 -30 -22 -25 -25 -36 -21 -77 3 -26 12 -56 21 -65 8 -10 20 -41 27 -70 9 -43 16 -53 38 -59 14 -4 39 -16 56 -28 16 -12 34 -21 40 -21 6 0 28 -9 50 -21 42 -21 61 -19 61 8 0 11 7 14 26 10 14 -2 44 0 67 5 23 6 59 10 79 9 30 -1 45 6 87 43 28 25 61 50 73 57 13 7 27 18 31 26 5 8 16 11 26 8 10 -3 35 2 55 10 21 9 45 15 54 13 37 -6 44 12 17 44 -14 16 -25 34 -25 39 0 5 -22 9 -50 9 -27 0 -50 5 -50 10 0 6 -25 10 -56 10 -47 0 -57 -3 -61 -20 -3 -11 -9 -20 -14 -20 -5 0 -9 -14 -9 -31 l0 -31 -45 26 c-25 14 -52 23 -60 19 -11 -4 -15 2 -14 23 1 24 2 25 6 6 2 -12 9 -20 14 -16 5 3 24 -4 43 -15 39 -25 46 -26 46 -7 0 8 8 28 18 45 16 29 20 31 80 31 35 0 62 -4 62 -10 0 -5 20 -10 45 -10 38 0 47 -4 56 -23 6 -13 19 -28 29 -35 16 -10 21 -6 38 29 l20 39 -22 16 c-21 15 -21 15 -2 29 11 8 34 15 50 15 43 1 119 19 126 31 4 5 32 14 64 19 79 13 184 72 192 108 3 15 8 35 11 45 6 23 -32 75 -60 79 -16 2 -22 9 -21 28 1 14 -7 31 -17 38 -16 11 -19 27 -19 93 0 66 -3 82 -20 99 -11 11 -20 26 -20 33 0 7 -5 18 -11 24 -6 6 -17 22 -23 34 -9 19 -30 28 -95 45 -45 11 -87 27 -92 35 -15 23 -29 82 -29 121 0 28 -5 38 -20 43 -11 3 -20 12 -20 20 0 24 -45 92 -57 88 -7 -3 -13 -18 -13 -34 0 -16 -3 -29 -7 -29 -9 0 -9 57 0 66 3 4 -1 17 -9 29 -10 16 -29 25 -62 30 -26 4 -50 9 -54 11 -4 3 4 21 18 42 22 32 23 38 9 48 -8 6 -42 17 -76 23 -53 11 -59 14 -54 32 8 24 -11 49 -36 49 -13 0 -19 7 -18 23 1 53 -9 88 -30 108 -12 12 -20 28 -17 36 16 40 17 91 2 133 -15 45 -11 86 15 130 20 33 30 64 25 77 -8 19 -49 16 -77 -6z m332 -843 c-5 -23 -14 -34 -31 -39 l-25 -6 28 -13 c15 -7 27 -17 27 -22 0 -5 -13 0 -30 12 -37 26 -38 40 -5 40 21 0 25 5 25 30 0 17 4 30 9 30 5 0 6 -14 2 -32z m-95 -109 c1 -20 -2 -26 -7 -17 -11 16 -12 48 -1 48 4 0 7 -14 8 -31z m69 -4 c40 -28 57 -27 34 2 -13 16 -12 17 4 4 21 -17 22 -44 2 -61 -8 -7 -19 -27 -24 -44 -6 -21 -9 -25 -10 -10 -1 11 6 29 14 40 21 28 19 32 -32 64 -26 17 -42 30 -36 30 5 0 27 -11 48 -25z m-55 -65 c0 -5 -12 -10 -27 -9 l-28 1 25 8 c14 4 26 8 28 9 1 1 2 -3 2 -9z m-76 -24 c-3 -8 -15 -17 -27 -20 -21 -5 -20 -4 3 14 30 24 31 24 24 6z m107 -73 c-22 -19 -31 -36 -31 -58 0 -16 -9 -43 -20 -60 -11 -16 -20 -25 -20 -20 1 6 7 19 15 29 8 11 15 33 15 50 0 29 42 86 63 86 5 0 -5 -12 -22 -27z m-84 -178 c-10 -7 -27 -28 -36 -47 -12 -22 -27 -34 -44 -36 -14 -2 -31 -10 -37 -18 -7 -8 -18 -14 -26 -14 -7 0 -29 -13 -47 -30 -35 -31 -61 -38 -72 -20 -3 6 -16 11 -28 11 -19 1 -19 2 -3 6 10 3 23 0 29 -6 18 -18 41 -12 70 19 16 17 37 30 48 30 11 0 22 7 25 15 4 8 18 15 31 15 28 0 52 24 53 52 0 9 9 20 20 23 11 3 20 11 20 17 0 6 3 8 7 4 5 -4 0 -14 -10 -21z m-379 -126 c-23 -13 -23 -32 2 -54 11 -10 20 -22 20 -26 0 -4 -11 2 -25 15 -14 13 -25 30 -25 38 0 17 20 38 35 38 5 0 2 -5 -7 -11z m-118 -134 c-15 -17 -6 -33 26 -45 16 -7 24 -17 24 -33 0 -21 6 -25 39 -31 21 -3 49 -14 61 -24 19 -16 21 -22 11 -40 -9 -17 -8 -28 4 -52 18 -34 31 -37 63 -14 19 13 28 14 53 4 16 -7 28 -15 26 -17 -3 -2 -16 1 -29 8 -21 9 -30 8 -52 -6 -32 -22 -50 -15 -72 26 -13 27 -14 36 -4 53 10 16 9 22 -6 33 -22 16 -46 17 -63 1 -10 -11 -11 -10 -6 3 4 11 0 18 -14 22 -15 3 -21 13 -21 31 0 15 -6 26 -13 26 -8 0 -22 9 -32 20 -15 16 -15 22 -5 35 7 8 15 15 17 15 3 0 0 -7 -7 -15z m50 -155 c-8 -5 -24 -9 -35 -9 -16 1 -16 2 5 9 35 11 48 11 30 0z"/>
</g>
<g id="layer103" fill="#9b7705" stroke="none">
<path d="M3973 4812 c-19 -3 -22 -11 -26 -70 -7 -88 -16 -129 -33 -143 -8 -6 -14 -28 -14 -48 0 -20 -7 -45 -15 -55 -8 -11 -15 -34 -15 -51 0 -18 -14 -50 -34 -80 -53 -80 -57 -185 -9 -261 12 -18 11 -29 -2 -68 -15 -44 -15 -48 4 -72 21 -26 19 -41 -8 -84 -15 -23 -15 -24 4 -16 11 5 27 10 35 12 8 1 27 5 43 9 21 4 27 11 27 31 0 28 25 43 43 25 19 -19 67 -14 67 7 0 10 4 22 9 27 5 6 11 23 13 40 3 28 7 31 70 45 43 10 73 23 82 35 16 22 29 15 40 -21 4 -14 1 -28 -9 -37 -22 -23 -18 -46 10 -57 22 -8 29 -5 55 23 24 27 30 43 35 107 7 85 14 105 41 105 14 0 20 -10 26 -40 4 -22 5 -52 2 -66 -4 -24 0 -28 53 -47 31 -12 59 -20 61 -18 2 2 6 29 9 60 5 50 3 61 -22 98 -16 24 -46 59 -68 79 -36 33 -40 42 -46 102 -5 48 -13 73 -29 90 -12 13 -22 31 -22 40 0 10 -7 29 -16 42 -9 13 -13 29 -9 35 4 6 -5 22 -19 35 -14 13 -26 32 -26 41 0 30 -49 84 -76 84 -13 0 -32 9 -41 20 -10 12 -30 20 -48 20 -16 0 -50 6 -75 13 -25 7 -55 11 -67 9z"/>
<path d="M4630 4601 c0 -16 -8 -43 -17 -61 -18 -31 -18 -31 7 -53 16 -14 26 -34 27 -56 1 -19 9 -41 18 -51 19 -21 19 -28 -1 -47 -10 -11 -13 -24 -9 -42 9 -34 4 -31 70 -38 47 -5 59 -10 67 -29 6 -13 17 -24 25 -24 7 0 17 -8 20 -17 4 -10 15 -24 25 -31 10 -7 18 -21 18 -31 0 -23 29 -51 31 -30 8 83 6 107 -8 102 -11 -4 -14 1 -11 23 2 16 -3 34 -11 40 -8 6 -15 27 -16 48 -1 20 -5 40 -9 43 -3 3 -6 23 -6 43 0 21 -7 43 -15 50 -8 7 -15 21 -15 31 0 11 -4 19 -9 19 -5 0 -18 23 -30 50 -12 28 -26 50 -31 50 -6 0 -10 9 -10 20 0 18 -7 20 -55 20 -54 0 -55 0 -55 -29z"/>
<path d="M4365 4188 c-2 -7 -4 -26 -3 -43 1 -99 -14 -134 -81 -192 -8 -7 -16 -37 -19 -68 -4 -46 -2 -55 12 -55 12 0 16 -10 16 -45 0 -41 2 -45 24 -45 16 0 27 -7 31 -20 3 -11 10 -20 15 -20 5 0 17 -16 26 -36 25 -52 12 -67 -66 -76 -35 -4 -66 -12 -70 -19 -4 -6 -16 -9 -26 -6 -14 5 -26 -5 -46 -37 -16 -24 -28 -48 -28 -54 0 -6 -12 -21 -27 -34 -16 -13 -36 -47 -47 -79 -15 -47 -16 -62 -7 -92 7 -19 13 -61 14 -93 1 -40 8 -64 20 -76 9 -10 17 -25 17 -34 0 -14 17 -15 148 -9 130 6 149 9 165 27 9 11 17 27 17 34 0 8 4 22 10 32 5 9 19 41 32 70 13 28 26 52 30 52 5 0 8 6 8 13 0 8 11 24 25 37 17 16 23 30 19 45 -6 25 18 55 44 55 9 0 37 -6 62 -14 77 -24 130 -34 136 -24 7 12 -13 70 -48 143 -27 54 -79 116 -234 278 -41 43 -46 53 -51 106 -4 38 -2 61 6 65 6 4 11 18 11 32 0 20 -9 29 -47 46 -27 11 -50 22 -52 24 -2 2 -3 31 -2 64 2 49 -1 60 -14 60 -9 0 -17 -6 -20 -12z"/>
<path d="M4208 4069 c-10 -11 -32 -19 -50 -20 -60 -2 -83 -13 -83 -40 0 -14 -5 -32 -11 -40 -7 -8 -14 -23 -16 -34 -4 -21 -20 -24 -77 -11 -32 8 -34 7 -29 -17 6 -28 -6 -37 -51 -37 -14 0 -36 -7 -48 -15 -12 -9 -26 -14 -31 -13 -5 2 -31 -22 -59 -52 l-51 -55 20 -24 c10 -14 16 -31 14 -38 -3 -8 -2 -12 2 -10 4 3 30 1 57 -3 31 -5 55 -4 62 2 7 6 19 8 26 5 19 -7 30 -103 15 -127 -16 -25 -4 -38 77 -79 38 -20 72 -45 79 -59 l13 -26 8 24 c4 13 20 34 36 48 16 13 29 31 29 39 0 8 10 28 23 43 12 15 27 36 33 46 9 16 14 17 26 6 12 -10 18 -9 28 3 8 10 30 15 60 15 53 0 80 7 80 21 0 5 -15 31 -32 59 -23 34 -40 49 -55 49 -20 1 -23 6 -23 45 0 39 -2 44 -20 39 -23 -6 -24 5 -11 95 6 45 5 55 -10 63 -26 14 -34 47 -15 68 16 18 22 52 9 50 -5 0 -16 -9 -25 -20z"/>
<path d="M3744 3628 c-3 -10 -2 -28 1 -39 10 -29 -10 -39 -62 -32 -39 5 -43 4 -43 -15 0 -12 -9 -26 -19 -32 -29 -15 -116 -13 -130 4 -7 9 -42 15 -99 18 -82 5 -89 4 -118 -21 -17 -14 -48 -39 -67 -56 -20 -16 -37 -35 -37 -42 0 -19 -53 -93 -66 -93 -7 0 -19 -13 -27 -30 -13 -25 -13 -34 -1 -67 16 -47 18 -136 2 -179 -10 -27 -8 -40 12 -86 12 -29 26 -55 30 -58 4 -3 22 -43 39 -90 18 -47 39 -92 47 -101 8 -8 14 -27 14 -41 0 -24 4 -26 53 -30 85 -7 158 -29 257 -76 71 -34 110 -32 148 8 18 18 32 39 32 47 0 7 7 16 15 19 9 4 21 16 27 27 9 18 7 24 -17 43 -23 18 -25 25 -16 42 8 16 7 21 -4 26 -17 6 -21 71 -5 81 6 3 10 25 10 48 0 48 22 87 49 87 11 0 22 7 25 16 4 11 14 15 31 11 14 -2 28 0 31 5 3 5 13 7 21 4 21 -9 83 15 83 31 0 7 9 13 19 13 11 0 23 9 26 20 4 14 15 20 36 20 28 0 29 2 29 45 0 27 -5 45 -11 45 -8 0 -8 4 0 14 8 10 7 24 -4 55 -10 30 -12 48 -4 64 17 38 -11 75 -93 121 l-73 42 3 75 4 75 -71 -1 c-59 0 -72 -3 -77 -17z"/>
<path d="M4016 3075 c-4 -16 -13 -25 -25 -25 -10 0 -21 -6 -24 -14 -6 -14 -45 -25 -116 -32 -24 -3 -50 -11 -58 -19 -8 -8 -19 -15 -25 -15 -20 0 -37 -35 -38 -77 0 -23 -4 -45 -10 -48 -18 -11 -11 -54 11 -65 17 -9 18 -14 8 -26 -10 -13 -7 -21 18 -45 l30 -31 39 27 c31 21 46 25 74 21 100 -18 156 -18 169 -2 7 9 23 16 35 16 11 0 55 9 96 19 41 10 79 16 84 13 18 -10 65 -9 69 2 2 6 1 22 -2 35 -6 21 -8 22 -20 7 -7 -9 -20 -16 -28 -16 -23 0 -9 42 35 103 32 45 61 106 62 130 0 4 -65 7 -144 7 -141 0 -145 1 -152 23 -8 28 -22 37 -55 37 -20 0 -28 -6 -33 -25z"/>
<path d="M1518 2778 c-10 -10 -29 -18 -42 -18 -30 0 -53 -35 -62 -92 -4 -24 -19 -68 -33 -98 -26 -54 -27 -55 -109 -85 -57 -21 -82 -35 -82 -47 0 -9 -5 -18 -11 -20 -7 -2 -7 -12 2 -32 12 -27 11 -30 -16 -52 -33 -26 -47 -29 -76 -14 -17 10 -19 7 -19 -25 0 -19 -4 -35 -9 -35 -5 0 -15 -32 -22 -71 -12 -66 -36 -109 -61 -109 -16 0 -8 -39 10 -43 15 -4 16 -5 0 -6 -11 -1 -19 -13 -24 -38 -4 -21 -18 -55 -32 -76 -21 -32 -25 -48 -24 -110 2 -80 22 -190 46 -252 8 -22 15 -50 16 -62 l0 -23 240 0 240 0 -1 -22 c-1 -17 -2 -19 -6 -5 -4 16 -24 17 -234 17 -201 0 -231 -2 -249 -17 -13 -11 -18 -24 -14 -39 4 -14 -7 -45 -27 -85 -18 -34 -32 -71 -32 -81 1 -10 -2 -16 -7 -13 -9 5 -46 -45 -42 -58 1 -5 -4 -20 -12 -35 -8 -15 -17 -35 -20 -44 -3 -10 -15 -18 -26 -18 -11 0 -20 -4 -20 -10 0 -5 -8 -10 -19 -10 -10 0 -24 -7 -31 -15 -7 -8 -18 -15 -25 -15 -7 0 -15 -7 -19 -15 -7 -19 -33 -19 -44 0 -4 9 -22 17 -40 19 -33 5 -44 -7 -16 -18 23 -9 7 -26 -24 -26 -33 0 -45 8 -61 37 -6 13 -18 23 -26 23 -7 0 -27 11 -43 25 -17 14 -32 25 -36 25 -8 0 5 -33 22 -53 23 -26 9 -32 -58 -25 -19 2 -26 -2 -28 -20 -2 -12 -10 -22 -18 -22 -8 0 -14 -7 -14 -15 0 -8 -6 -15 -13 -15 -10 0 -9 -11 7 -46 20 -44 22 -45 56 -40 36 6 70 -14 70 -42 0 -10 -7 -12 -27 -8 -30 8 -43 -5 -43 -46 0 -22 6 -29 27 -34 17 -5 28 -3 31 4 5 17 37 15 52 -3 10 -12 9 -16 -4 -21 -9 -3 -16 -14 -16 -23 0 -9 -7 -27 -16 -39 -10 -15 -11 -22 -3 -22 6 0 30 -9 53 -19 23 -10 60 -24 83 -31 37 -11 44 -11 71 9 17 11 37 21 46 21 9 0 24 4 34 9 49 24 110 37 139 29 23 -6 45 -3 84 12 47 19 53 19 69 5 9 -8 32 -15 51 -15 19 0 39 -4 44 -9 6 -4 30 -13 55 -19 37 -10 47 -9 56 3 6 8 23 15 37 15 14 0 38 10 54 23 82 65 123 82 138 57 4 -6 21 -8 38 -5 22 4 41 0 60 -13 26 -18 32 -18 69 -5 58 20 82 14 88 -22 6 -28 7 -29 14 -7 9 26 24 28 52 8 16 -13 17 -18 7 -35 -18 -29 -16 -51 7 -89 11 -18 20 -40 20 -48 0 -12 6 -15 25 -10 18 5 25 2 25 -9 0 -8 5 -15 11 -15 6 0 8 7 5 16 -3 9 -6 18 -6 20 0 2 -8 4 -19 4 -29 0 -47 53 -33 97 6 20 9 40 7 44 -3 4 8 13 24 20 17 7 32 21 34 31 7 25 53 23 69 -2 15 -23 33 -27 25 -6 -3 8 -2 16 3 18 4 2 10 14 12 28 2 19 -3 26 -27 35 -16 5 -41 22 -53 37 -27 31 -44 35 -62 13 -7 -8 -16 -15 -21 -15 -12 0 -11 37 1 45 15 10 12 25 -6 25 -8 0 -41 24 -72 54 -42 40 -67 56 -92 59 l-35 4 33 1 c27 2 32 6 29 20 -22 79 -20 90 29 147 31 36 56 55 70 55 12 0 25 7 28 16 4 12 10 13 19 6 6 -5 31 -9 54 -9 36 1 39 3 23 12 -18 9 -18 13 -6 31 8 11 14 36 13 56 -1 22 6 45 16 56 9 10 17 32 18 48 1 27 2 26 12 -11 7 -22 18 -51 25 -64 9 -14 11 -36 8 -56 -7 -35 1 -68 14 -60 14 9 40 -6 40 -22 0 -9 7 -21 16 -28 16 -11 16 -15 1 -60 -18 -51 -14 -63 25 -93 14 -10 15 -18 8 -38 -15 -38 -13 -40 30 -36 27 3 52 14 76 35 32 29 34 34 28 73 -4 26 -2 44 5 48 19 12 79 -16 92 -43 l14 -26 3 38 c2 22 8 37 16 37 8 0 17 15 20 34 4 19 17 41 32 52 14 11 30 30 35 43 7 18 13 21 21 13 17 -17 33 -15 18 3 -16 19 -5 34 20 28 17 -5 19 -2 13 15 -9 24 -70 72 -90 72 -8 0 -25 12 -39 28 -22 22 -35 27 -77 28 -62 1 -127 30 -127 56 0 28 29 34 46 9 8 -11 24 -21 35 -21 15 0 19 7 20 38 2 81 34 126 63 87 15 -20 15 -19 9 3 -3 12 -10 22 -16 22 -6 0 -19 7 -29 16 -16 16 -18 16 -24 0 -3 -9 -12 -16 -20 -16 -8 0 -14 -11 -14 -27 0 -37 -11 -22 -12 16 -1 23 -6 31 -19 31 -30 0 -79 69 -79 112 0 21 -4 38 -8 38 -4 0 -31 22 -60 50 -53 51 -65 83 -35 94 14 6 10 13 -23 48 -21 22 -54 47 -71 54 -22 9 -33 21 -33 34 0 11 -4 20 -10 20 -13 0 -13 76 1 102 14 27 3 68 -19 68 -24 0 -44 -35 -36 -65 4 -16 2 -25 -5 -25 -6 0 -16 -11 -21 -25 -11 -30 -32 -40 -56 -27 -11 6 -32 5 -62 -4 -58 -18 -88 -18 -171 1 -71 17 -116 48 -155 108 -24 39 -29 29 -10 -20 13 -32 14 -49 5 -84 l-11 -44 5 48 c3 29 -1 62 -10 83 -25 60 7 184 51 201 24 9 93 -16 104 -37 7 -13 21 -20 41 -20 29 0 31 2 24 28 -3 15 -13 34 -21 43 -8 8 -14 20 -14 26 0 6 -7 13 -15 17 -21 8 -19 30 5 51 24 21 26 53 5 61 -8 4 -15 14 -15 24 0 10 -4 20 -9 22 -6 2 -14 22 -20 46 -11 50 3 63 45 43 39 -17 44 -14 44 28 0 47 -9 55 -32 29z m-229 -641 c-2 -2 -22 -15 -44 -31 l-40 -27 35 30 c19 17 39 31 44 31 5 0 7 -1 5 -3z m-159 -54 c-8 -3 -24 -13 -35 -22 -20 -16 -20 -16 -1 7 11 12 26 22 35 21 14 0 14 -1 1 -6z m742 -370 c10 -9 18 -22 18 -29 0 -7 6 -15 13 -17 9 -4 9 -6 -1 -6 -7 -1 -17 10 -22 24 -12 32 -35 41 -58 24 -15 -13 -16 -12 -3 4 17 21 29 22 53 0z m188 -99 c0 -2 -16 -4 -35 -4 -19 0 -35 4 -35 8 0 4 16 6 35 4 19 -2 35 -6 35 -8z m-149 -62 c-4 -54 -11 -53 -11 3 0 27 3 45 7 41 4 -4 6 -24 4 -44z m261 -7 c15 1 24 -3 22 -7 -8 -12 -38 -10 -52 4 -7 7 -11 23 -11 38 1 23 2 23 8 -5 5 -24 12 -30 33 -30z m-542 -91 c0 -2 -14 -4 -31 -4 -16 0 -28 4 -25 9 5 8 56 3 56 -5z m-173 -131 c-3 -10 -5 -2 -5 17 0 19 2 27 5 18 2 -10 2 -26 0 -35z m10 -120 c-3 -10 -5 -2 -5 17 0 19 2 27 5 18 2 -10 2 -26 0 -35z m-537 -38 c0 -15 -8 -28 -22 -35 -21 -10 -21 -10 -5 3 9 8 17 24 17 36 0 11 2 21 5 21 3 0 5 -11 5 -25z m547 -82 c-3 -10 -5 -2 -5 17 0 19 2 27 5 18 2 -10 2 -26 0 -35z m-590 -40 c-3 -10 -5 -2 -5 17 0 19 2 27 5 18 2 -10 2 -26 0 -35z m486 -70 c-29 -2 -78 -2 -110 0 -32 2 -8 3 52 3 61 0 87 -1 58 -3z m-345 -10 c-27 -2 -69 -2 -95 0 -27 2 -5 3 47 3 52 0 74 -1 48 -3z m-225 -10 c-17 -3 -23 -12 -24 -31 -1 -18 -3 -21 -6 -9 -7 29 4 47 29 46 l23 -2 -22 -4z m-16 -220 c-2 -16 -4 -3 -4 27 0 30 2 43 4 28 2 -16 2 -40 0 -55z"/>
<path d="M2216 1713 c-3 -3 -1 -12 5 -20 6 -7 9 -22 6 -33 -7 -26 9 -26 24 1 9 17 7 24 -9 39 -11 10 -23 16 -26 13z"/>
<path d="M297 1143 c-6 -5 45 -53 57 -53 3 0 3 6 0 14 -7 18 -50 47 -57 39z"/>
<path d="M2530 1121 c0 -6 -7 -11 -15 -11 -9 0 -18 -7 -21 -15 -4 -8 -12 -15 -19 -15 -19 0 -41 -39 -55 -100 -7 -30 -16 -67 -20 -82 -7 -21 -4 -30 10 -40 25 -17 38 -68 18 -68 -8 0 -23 -7 -34 -16 -15 -12 -15 -14 -2 -11 26 9 30 -5 7 -30 -12 -12 -30 -45 -40 -73 -19 -53 -37 -77 -77 -97 -30 -16 -47 -16 -70 -2 -21 13 -103 0 -109 -17 -2 -6 10 -14 27 -17 35 -8 39 -24 8 -36 -20 -7 -16 -10 25 -16 45 -7 73 -25 49 -33 -17 -5 -2 -32 19 -32 10 0 19 -6 19 -13 0 -17 61 -43 138 -58 40 -7 62 -16 62 -25 0 -8 6 -14 13 -14 19 -1 57 -36 57 -54 0 -10 9 -16 23 -16 13 0 40 -8 61 -18 35 -17 44 -17 134 -4 103 15 136 34 103 59 -9 7 -24 13 -33 13 -34 0 -18 20 17 20 19 0 35 4 35 9 0 18 93 0 152 -30 25 -12 33 8 8 21 -11 6 -20 17 -20 25 0 8 -6 18 -14 22 -18 10 -24 76 -8 95 8 10 10 31 6 62 -5 35 -4 46 7 46 10 1 9 4 -3 11 -10 5 -18 17 -18 25 0 11 -6 13 -20 9 -11 -3 -26 -2 -35 2 -12 7 -10 14 15 41 32 36 37 51 18 70 -9 9 -14 6 -22 -10 -15 -30 -32 -33 -39 -6 -4 14 0 29 10 40 15 17 15 18 -4 18 -11 0 -26 7 -33 15 -10 12 -16 13 -26 4 -11 -9 -16 -5 -25 20 -6 17 -17 31 -24 31 -7 0 -18 7 -25 15 -7 8 -16 12 -21 10 -4 -3 -13 4 -19 15 -8 15 -21 20 -50 20 -41 0 -73 22 -64 45 3 7 -3 40 -14 72 -11 32 -24 73 -29 92 -8 32 -33 56 -33 32z"/>
</g>
<g id="layer104" fill="#3b5b88" stroke="none">
<path d="M3197 2598 c-7 -18 -85 -59 -92 -48 -3 6 -20 9 -38 7 -24 -2 -33 -8 -35 -25 -2 -12 -10 -22 -17 -22 -25 0 -26 -18 -4 -83 l21 -65 -27 -57 c-15 -30 -26 -57 -24 -58 2 -1 14 -11 27 -22 19 -15 25 -17 32 -6 4 8 21 13 36 13 91 -2 98 -4 126 -32 17 -17 24 -31 18 -35 -6 -4 -8 -21 -4 -41 6 -30 3 -36 -15 -41 -11 -3 -21 -11 -21 -18 0 -7 -13 -25 -30 -38 -16 -14 -30 -30 -30 -35 0 -14 45 -24 75 -16 20 5 27 1 36 -20 9 -19 17 -25 31 -20 10 3 18 0 18 -6 0 -8 9 -10 25 -6 20 5 27 2 34 -16 11 -28 38 -53 68 -62 12 -4 25 -16 28 -27 4 -10 11 -19 16 -19 5 0 9 -9 9 -20 0 -11 5 -20 10 -20 6 0 10 -9 10 -20 0 -11 7 -20 15 -20 17 0 55 -56 55 -80 0 -8 20 -41 45 -72 48 -62 57 -101 33 -154 -11 -23 -10 -28 7 -41 18 -13 21 -12 32 14 6 15 10 37 7 48 -10 48 40 62 136 36 30 -8 76 -14 102 -14 l47 0 -2 -56 c-1 -38 4 -64 15 -80 16 -23 16 -23 23 -2 3 12 15 21 26 21 27 0 24 -36 -6 -72 -14 -17 -24 -36 -22 -42 2 -6 30 -12 63 -14 67 -4 81 -12 65 -39 -7 -12 -10 -13 -11 -4 0 12 -3 11 -17 -1 -10 -9 -23 -13 -30 -11 -6 2 -14 -1 -18 -7 -4 -7 -11 -8 -18 -1 -7 5 -32 11 -57 12 l-45 3 3 -39 c2 -22 10 -47 18 -56 19 -21 18 -68 -2 -76 -25 -9 -47 9 -57 47 -4 18 -18 41 -30 50 -20 16 -21 21 -9 52 21 60 16 106 -18 140 -16 16 -30 40 -30 53 0 12 -7 28 -15 35 -8 7 -15 19 -15 26 0 20 -27 17 -59 -7 -23 -17 -30 -32 -36 -74 -7 -61 -26 -75 -49 -39 -21 31 -54 31 -66 0 -5 -13 -14 -27 -19 -31 -6 -3 -11 -23 -11 -43 0 -21 -7 -47 -15 -59 -13 -19 -13 -23 0 -37 8 -8 15 -21 15 -28 0 -7 5 -20 10 -28 9 -13 11 -13 20 0 8 13 12 11 27 -10 10 -14 17 -28 15 -33 -1 -4 4 -7 12 -7 20 0 76 -58 77 -78 0 -9 11 -33 25 -52 13 -19 34 -50 45 -67 14 -22 29 -33 44 -33 13 0 25 -6 27 -12 3 -7 15 -13 29 -13 13 0 23 -5 22 -12 -4 -17 83 -56 127 -57 19 -1 49 6 67 16 17 9 33 14 36 11 3 -3 21 0 39 6 18 6 65 14 103 17 53 4 78 11 102 30 64 49 27 77 -94 72 -40 -1 -75 1 -79 4 -11 12 3 33 32 48 36 18 44 29 44 58 0 16 6 22 24 22 34 0 50 -23 36 -50 -11 -20 -10 -21 9 -10 17 9 29 6 66 -15 25 -14 52 -25 60 -25 16 0 21 -26 7 -32 -5 -2 -12 -20 -15 -41 -5 -33 -3 -37 15 -37 23 0 47 26 48 53 0 9 5 17 10 17 12 0 61 -33 98 -64 12 -11 22 -16 22 -12 0 5 10 1 23 -7 19 -12 34 -13 77 -5 52 9 55 8 75 -16 18 -22 25 -24 65 -19 25 3 51 10 58 16 20 16 15 128 -9 183 -11 27 -20 60 -21 74 -1 51 14 186 23 205 7 15 6 29 -5 50 -22 43 -20 51 19 75 34 21 46 52 25 65 -6 4 -8 26 -4 56 6 48 6 49 -23 60 -17 5 -35 21 -41 34 -12 27 -40 32 -73 14 -16 -8 -25 -7 -38 5 -10 9 -29 16 -42 16 -14 0 -34 7 -45 15 -10 8 -29 15 -41 15 -16 0 -24 8 -29 28 -4 15 -14 35 -22 45 -13 15 -13 24 -2 75 8 31 22 63 32 70 21 15 24 67 5 79 -34 22 -41 98 -10 116 7 4 13 19 13 33 0 14 10 35 23 47 20 19 22 28 16 67 -4 25 -3 49 2 54 13 15 11 26 -6 26 -8 0 -15 4 -15 9 0 9 -5 11 -87 34 -31 9 -55 11 -59 6 -3 -5 2 -12 11 -15 10 -4 13 -13 9 -26 -7 -24 -90 -106 -112 -110 -8 -2 -20 -12 -26 -23 -6 -10 -17 -25 -23 -33 -20 -21 -14 -38 22 -58 11 -6 22 -19 23 -28 3 -15 -2 -16 -35 -11 -81 14 -140 60 -94 72 26 7 26 12 2 41 -24 28 -50 20 -58 -19 -7 -37 -25 -51 -60 -47 -20 2 -29 9 -31 25 -2 12 -12 25 -23 28 -16 5 -19 13 -15 31 4 14 2 24 -4 24 -6 0 -10 8 -9 18 3 24 -11 72 -22 72 -5 0 -9 5 -9 11 0 6 -12 26 -26 45 -15 19 -24 37 -21 41 11 11 -27 63 -45 63 -26 0 -33 27 -13 50 12 13 15 27 11 46 -5 18 -2 32 10 45 9 11 12 19 6 19 -6 0 -14 -5 -17 -10 -5 -8 -11 -8 -20 0 -21 18 -55 -9 -55 -43 0 -54 -22 -116 -46 -132 -17 -11 -24 -25 -24 -49 0 -27 -7 -38 -35 -57 -19 -13 -35 -27 -35 -31 0 -5 -13 -8 -30 -8 -24 0 -30 4 -30 21 0 31 18 59 35 53 8 -4 15 -1 15 6 0 7 11 25 25 42 26 31 33 58 15 58 -6 0 -13 -7 -16 -15 -4 -11 -13 -13 -28 -9 -29 9 -31 11 -17 28 19 23 4 72 -31 101 -16 14 -34 25 -40 25 -17 0 -68 -41 -63 -51 8 -11 58 -8 67 5 4 6 10 2 14 -9 4 -11 14 -28 22 -38 16 -18 15 -20 -17 -87 -4 -8 -30 -29 -57 -48 -27 -18 -50 -40 -52 -48 -5 -22 -50 -29 -71 -10 -20 18 -38 21 -43 7 -1 -5 -16 -11 -33 -13 -26 -3 -31 1 -44 37 -8 22 -20 43 -27 47 -16 10 -14 95 2 127 12 23 11 28 -10 51 -13 14 -27 35 -31 48 -4 13 -14 22 -26 22 -10 0 -19 5 -19 10 0 6 -7 10 -15 10 -8 0 -15 9 -15 20 0 22 -35 28 -43 8z"/>
<path d="M3046 1838 c16 -18 33 -36 38 -39 13 -10 -1 -39 -19 -39 -21 0 -19 -17 5 -37 20 -18 28 -73 10 -73 -5 0 -10 -5 -10 -12 0 -6 9 -3 20 7 20 18 20 17 20 -16 -1 -41 -20 -69 -49 -69 -22 0 -28 -14 -11 -25 20 -12 9 -42 -27 -74 -32 -29 -35 -35 -25 -52 14 -22 8 -39 -14 -39 -21 0 -17 -18 9 -35 13 -8 29 -26 35 -39 6 -14 22 -26 43 -30 40 -8 47 -2 26 22 -10 10 -17 29 -17 41 0 20 4 22 34 17 25 -4 36 -1 40 10 7 17 -15 64 -38 83 -26 22 -20 42 9 35 30 -7 55 10 55 38 0 10 14 37 31 58 24 29 31 48 31 79 l-1 40 41 -2 c51 -2 58 14 23 49 -19 19 -25 33 -21 50 8 29 -3 35 -64 36 -27 0 -52 4 -55 9 -3 5 -14 3 -25 -3 -15 -10 -22 -9 -38 5 -10 9 -26 17 -35 17 -9 0 -19 5 -22 10 -3 6 -11 10 -17 10 -7 0 1 -15 18 -32z"/>
<path d="M2845 1780 c-9 -15 27 -71 42 -66 7 3 13 -1 13 -8 0 -7 -12 -16 -27 -19 -24 -5 -28 -11 -30 -41 -2 -26 2 -38 16 -45 10 -6 21 -8 25 -4 3 3 18 -6 32 -20 40 -40 92 -31 108 19 8 25 -27 48 -65 42 -22 -3 -24 0 -24 44 0 29 5 50 13 53 22 8 13 23 -18 30 -16 4 -32 11 -35 16 -8 12 -42 12 -50 -1z"/>
<path d="M3180 1175 c-14 -8 -42 -14 -62 -15 -39 0 -49 -15 -27 -37 16 -16 -11 -54 -33 -48 -9 3 -19 1 -23 -5 -3 -5 1 -10 9 -10 8 0 20 -9 26 -20 8 -16 8 -20 -3 -20 -28 0 -38 -25 -23 -54 8 -15 17 -23 20 -18 3 6 15 8 25 5 14 -3 23 3 33 23 17 35 34 41 43 15 7 -22 25 -29 25 -11 0 7 7 7 20 0 11 -6 25 -8 31 -5 5 4 20 -4 32 -17 35 -38 55 -41 83 -13 13 13 24 29 24 35 0 5 7 10 15 10 8 0 15 6 16 13 0 6 2 22 3 34 2 14 -4 25 -15 28 -9 3 -19 15 -22 25 -6 22 -46 42 -62 30 -21 -15 -45 -7 -45 16 0 15 -10 28 -32 38 -17 9 -32 16 -32 16 -1 -1 -12 -7 -26 -15z"/>
</g>
<g id="layer105" fill="#55a153" stroke="none">
<path d="M5474 3273 c-15 -32 -44 -94 -65 -138 -79 -168 -79 -167 -72 -244 5 -60 4 -71 -10 -71 -8 0 -17 6 -20 13 -3 8 -10 7 -26 -7 -15 -13 -18 -23 -11 -30 17 -17 11 -36 -10 -36 -13 0 -20 -7 -20 -20 0 -12 -6 -20 -12 -19 -28 3 -38 -2 -38 -20 0 -24 -18 -36 -46 -33 -17 2 -23 -4 -29 -30 -5 -18 -8 -42 -7 -53 2 -18 1 -18 -9 -3 -7 12 -7 24 1 37 12 23 13 61 2 61 -5 0 -26 18 -48 40 -40 40 -64 51 -64 27 0 -7 -6 -22 -14 -32 -14 -19 -15 -19 -26 5 -11 24 -60 39 -60 19 0 -5 -6 -9 -14 -9 -16 0 -26 -30 -26 -81 0 -20 -3 -38 -6 -41 -5 -6 -78 22 -91 35 -3 4 6 22 21 41 14 19 26 40 26 47 0 7 10 23 21 35 12 13 27 34 33 46 10 19 19 22 46 20 19 -2 38 -9 43 -15 5 -8 9 -9 15 -1 4 5 23 18 43 27 23 10 39 26 43 41 7 29 -3 114 -15 122 -5 3 -9 12 -9 21 0 26 -53 123 -67 123 -7 0 -33 20 -58 43 -47 46 -84 61 -171 73 -46 6 -52 4 -67 -20 -9 -14 -17 -36 -17 -50 0 -33 -30 -83 -56 -95 -12 -5 -36 -30 -55 -55 -18 -25 -36 -46 -40 -46 -4 0 -10 -13 -14 -28 -3 -16 -25 -49 -48 -73 -24 -24 -43 -54 -44 -69 -1 -14 -7 -42 -14 -63 -9 -28 -9 -41 -1 -49 7 -7 9 -34 6 -72 -3 -34 -6 -81 -7 -106 -2 -49 -23 -64 -54 -38 -18 14 -53 13 -97 -4 -24 -10 -31 -9 -42 7 -7 10 -11 22 -8 26 3 5 1 9 -5 9 -5 0 -11 -10 -13 -22 -2 -15 -10 -23 -24 -24 -29 -2 -44 -12 -44 -32 0 -9 -9 -28 -20 -42 -12 -15 -15 -29 -10 -36 6 -6 5 -23 -3 -43 -10 -26 -9 -36 3 -58 24 -41 45 -50 69 -29 16 15 31 18 72 14 28 -3 55 -11 59 -18 5 -8 19 -11 39 -7 16 4 33 3 35 -2 9 -13 53 -1 72 20 21 23 57 25 74 4 16 -20 44 -20 36 0 -11 29 26 34 94 13 36 -11 72 -24 80 -28 9 -4 19 -2 25 6 5 8 31 20 56 27 41 13 48 12 67 -4 12 -9 22 -22 22 -28 0 -6 8 -11 18 -11 9 0 24 -5 32 -10 11 -8 8 -9 -12 -4 -25 5 -27 3 -33 -33 -4 -21 -14 -44 -23 -50 -9 -8 -11 -13 -4 -13 18 0 15 -38 -4 -48 -9 -5 -17 -24 -19 -43 -1 -20 -10 -37 -21 -44 -46 -25 -59 -76 -23 -95 16 -9 20 -19 17 -53 -3 -40 -5 -42 -36 -45 -27 -3 -35 1 -39 17 -6 22 -23 29 -23 9 0 -6 -10 -22 -22 -35 -12 -13 -23 -31 -25 -41 -14 -82 -14 -89 1 -101 9 -8 16 -24 16 -37 0 -20 5 -24 30 -24 17 0 30 -4 30 -10 0 -5 10 -10 23 -10 12 0 34 -6 49 -14 21 -11 36 -12 69 -4 37 10 44 9 55 -7 8 -10 14 -24 14 -30 0 -7 19 -17 42 -24 l41 -13 54 57 c29 32 53 54 53 50 0 -5 -27 -34 -59 -66 -69 -69 -87 -116 -61 -162 14 -27 14 -29 -9 -48 -13 -11 -31 -24 -40 -29 -13 -7 -14 -13 -4 -42 12 -32 9 -85 -12 -236 -4 -31 0 -54 14 -88 11 -25 23 -66 27 -92 7 -52 -11 -165 -26 -170 -14 -5 -12 -40 3 -45 9 -3 9 -7 1 -18 -7 -8 -10 -28 -7 -45 5 -30 6 -31 34 -21 16 6 29 15 29 19 0 4 7 8 15 8 19 0 19 10 -1 38 -14 20 -14 24 4 50 11 15 20 30 21 35 0 4 8 21 16 37 17 33 58 49 79 31 11 -9 15 -5 20 21 4 20 18 41 34 52 l27 19 -22 -24 c-24 -27 -30 -49 -12 -49 6 0 9 -12 7 -27 -3 -25 -7 -28 -45 -31 -34 -3 -43 -7 -43 -22 0 -10 -4 -22 -10 -25 -5 -3 -10 -21 -10 -40 0 -28 3 -32 19 -28 11 3 27 14 37 24 9 10 25 19 36 19 19 0 24 -15 8 -25 -5 -3 -7 -12 -3 -20 3 -9 -2 -26 -11 -40 -9 -13 -16 -27 -16 -30 0 -8 36 2 69 18 19 10 25 8 37 -8 13 -18 11 -20 -31 -31 -25 -6 -48 -14 -52 -17 -10 -11 28 -47 49 -47 11 0 22 -9 25 -20 3 -11 10 -20 17 -20 6 0 31 -14 56 -30 25 -16 56 -30 70 -30 14 0 38 -7 54 -15 22 -12 32 -13 43 -4 11 10 20 7 44 -10 17 -13 31 -21 32 -19 19 36 28 43 55 43 17 0 39 8 49 17 16 17 16 19 -5 41 -12 13 -22 27 -22 33 0 5 -16 20 -35 33 -33 22 -43 40 -29 54 7 7 49 -17 85 -51 16 -14 37 -23 50 -21 13 1 41 -1 62 -6 46 -9 104 17 110 50 4 17 4 16 6 -4 1 -27 47 -81 67 -81 7 0 19 12 26 27 7 15 24 33 38 40 14 7 30 24 36 39 l11 27 12 -22 c7 -13 19 -20 26 -17 8 3 36 -6 64 -20 56 -27 90 -30 110 -11 11 10 14 10 18 0 10 -27 73 -11 66 16 -3 13 2 20 19 24 13 4 29 16 36 27 11 18 10 24 -10 40 l-23 20 27 -13 c17 -8 28 -21 30 -37 4 -33 43 -38 95 -12 21 11 66 22 100 26 59 7 63 5 78 -18 14 -21 20 -23 41 -15 14 5 36 9 49 9 12 0 25 7 29 15 3 8 17 15 31 15 14 0 25 5 25 10 0 6 6 10 13 10 20 0 81 48 89 71 10 25 37 36 49 18 8 -12 12 -11 23 3 7 10 20 18 29 18 36 0 48 73 16 93 -23 14 -67 1 -74 -23 -5 -16 -14 -19 -45 -18 -63 2 -70 13 -30 47 l35 30 -37 31 c-21 17 -38 35 -38 40 0 5 -10 25 -22 44 -22 34 -25 36 -65 31 -41 -6 -42 -5 -48 27 -4 23 0 48 15 81 17 39 21 60 16 105 -3 32 -6 76 -6 99 1 23 -4 44 -10 48 -6 4 -26 -9 -44 -27 -28 -28 -35 -46 -46 -106 -7 -41 -9 -86 -5 -100 18 -74 18 -93 -4 -113 -11 -11 -21 -26 -21 -34 0 -14 -46 -55 -62 -55 -6 0 -7 8 -2 17 4 10 6 35 5 55 -1 21 3 38 9 38 5 0 10 4 10 9 0 6 -14 6 -35 0 -22 -6 -41 -6 -53 0 -11 6 -24 6 -34 0 -11 -6 -19 -6 -23 1 -3 5 -19 10 -34 10 -34 0 -81 34 -81 59 0 9 -9 34 -20 55 -10 22 -17 42 -15 46 3 4 25 11 50 15 29 4 50 13 58 26 6 10 22 19 34 19 21 0 23 5 23 48 0 27 8 62 19 83 23 42 29 110 18 204 -8 71 -30 135 -47 135 -5 0 -24 -15 -42 -33 -18 -18 -42 -39 -53 -47 -11 -7 -5 0 13 18 17 17 32 36 32 41 0 6 6 11 14 11 22 0 24 20 5 59 -10 20 -21 52 -24 72 -6 33 -4 38 23 55 17 9 40 36 52 59 20 39 21 44 6 78 -17 41 -36 49 -36 15 0 -43 -12 -68 -31 -68 -10 0 -26 -11 -35 -25 -9 -15 -26 -25 -39 -25 -17 0 -25 -8 -30 -27 l-7 -28 -19 25 c-11 14 -29 35 -40 48 -30 32 -19 47 46 61 l57 13 -23 24 c-18 19 -30 23 -54 19 -27 -5 -28 -4 -7 5 13 5 29 23 35 40 6 16 15 30 19 30 4 0 8 7 8 15 0 8 4 15 10 15 5 0 7 6 4 14 -3 8 3 16 16 19 13 3 19 10 15 17 -4 6 -2 17 5 25 7 8 9 27 4 49 -4 24 -2 36 5 36 14 0 13 52 -2 133 -7 34 -16 57 -24 57 -7 0 -13 5 -13 11 0 6 -13 28 -30 49 -16 21 -30 42 -30 46 0 5 -16 20 -35 33 -19 13 -35 29 -35 35 0 6 -4 18 -10 26 -7 12 -12 12 -29 -4 -12 -11 -21 -24 -21 -31 0 -7 -9 -20 -20 -30 -11 -10 -20 -13 -20 -7 0 7 4 12 9 12 5 0 11 6 14 14 3 8 -1 13 -11 12 -22 -1 -43 42 -40 84 3 30 7 35 31 38 23 3 27 8 27 33 0 22 5 29 20 29 13 0 24 10 31 28 6 15 17 39 25 54 8 14 14 50 14 80 0 43 -6 64 -29 100 -40 63 -48 65 -62 19 -8 -28 -24 -49 -51 -68 l-40 -27 -19 24 c-23 30 -23 36 -4 44 9 3 15 18 15 36 0 17 7 47 15 67 19 44 19 43 -2 43 -10 0 -29 -17 -43 -38 -24 -36 -32 -62 -49 -167 -4 -27 -11 -58 -15 -67 -7 -16 -72 -48 -99 -48 -13 -1 -87 -102 -87 -120 0 -7 -9 -23 -20 -37 -20 -26 -27 -73 -11 -73 5 0 12 -8 15 -17 6 -15 4 -15 -14 2 -11 10 -20 24 -20 32 0 7 -7 13 -16 13 -8 0 -19 13 -25 28 -7 20 -16 28 -31 28 -17 -1 -24 8 -32 36 -6 20 -14 40 -18 44 -5 4 -8 19 -8 32 0 14 -6 33 -14 41 -14 17 -31 96 -47 226 -6 52 -15 84 -26 92 -8 7 -13 20 -11 30 4 16 -12 43 -26 43 -3 0 -18 -26 -32 -57z m356 -654 c0 -7 -6 -4 -15 7 -19 25 -19 40 0 20 8 -8 15 -20 15 -27z m217 21 c3 -11 14 -20 24 -20 10 0 20 -4 23 -9 3 -4 -6 -6 -21 -3 -14 3 -28 13 -30 23 -8 28 -38 23 -67 -12 -14 -17 -26 -27 -26 -23 0 16 55 64 73 64 10 0 21 -9 24 -20z m-157 -108 c0 -2 -7 1 -16 9 -13 10 -17 10 -25 -2 -5 -8 -9 -18 -9 -23 0 -5 -3 -7 -6 -4 -3 4 0 16 6 28 9 16 9 25 1 33 -6 6 -11 15 -11 19 0 4 14 -6 30 -24 17 -17 30 -33 30 -36z m255 58 c-11 -5 -27 -9 -35 -9 -9 0 -8 4 5 9 11 5 27 9 35 9 9 0 8 -4 -5 -9z m-226 -44 c-22 -20 -22 -20 -6 0 9 11 17 27 18 35 0 11 2 11 6 0 3 -7 -5 -23 -18 -35z m-205 -44 c-7 -4 -14 -18 -15 -31 -2 -14 -10 -26 -17 -27 -7 -1 -8 0 -2 3 5 2 10 15 10 27 0 25 8 36 24 36 7 0 7 -3 0 -8z m79 -19 c-13 -2 -33 -2 -45 0 -13 2 -3 4 22 4 25 0 35 -2 23 -4z m-741 -45 c-5 -7 -12 -24 -15 -38 -4 -24 -4 -24 -6 3 0 15 5 34 12 41 15 17 24 11 9 -6z m523 -15 c-11 -3 -24 -9 -29 -14 -6 -5 -14 -9 -20 -9 -5 0 -1 7 10 15 10 8 28 14 39 14 l20 -1 -20 -5z m-507 -112 c16 -13 15 -13 -2 -7 -12 4 -27 0 -40 -12 -24 -22 -60 -37 -51 -22 3 6 11 10 17 10 21 0 48 33 49 59 1 21 2 22 6 6 3 -11 12 -26 21 -34z m400 -30 l-1 -36 -4 35 c-3 19 -10 42 -16 50 -10 13 -10 13 6 1 11 -9 16 -26 15 -50z m-291 -61 c3 -10 2 -11 -4 -4 -4 7 -19 14 -33 17 -22 4 -21 5 4 4 17 -1 31 -9 33 -17z m147 -22 c9 -12 15 -36 15 -53 -1 -28 -2 -27 -9 8 -8 44 -16 54 -50 60 -25 4 -25 4 2 6 17 1 32 -7 42 -21z m69 -28 c-7 -28 -15 -31 -33 -12 -13 14 -12 15 2 10 10 -4 19 -1 22 8 8 21 15 17 9 -6z m-79 -163 c7 -6 6 -7 -4 -4 -8 2 -16 14 -17 28 -1 19 -1 20 4 4 3 -11 10 -24 17 -28z m786 17 c16 -10 18 -13 5 -8 -11 4 -31 7 -44 7 -18 -1 -20 1 -10 8 18 11 19 11 49 -7z m115 5 c15 -7 12 -7 -13 -3 -25 4 -37 1 -48 -13 -14 -17 -14 -16 -4 5 11 23 32 27 65 11z m-200 -16 c-11 -3 -26 -10 -32 -15 -9 -7 -13 -7 -13 0 0 13 18 21 45 20 l20 0 -20 -5z m-75 -7 c0 -2 -16 -6 -35 -8 -19 -2 -35 0 -35 4 0 4 16 8 35 8 19 0 35 -2 35 -4z m-95 -46 c-10 -11 -23 -20 -28 -20 -6 0 0 9 13 20 13 11 25 20 28 20 3 0 -3 -9 -13 -20z m-61 -48 c-26 -44 -54 -78 -54 -66 0 6 7 17 15 24 8 7 15 16 15 21 0 9 31 49 38 49 2 0 -4 -13 -14 -28z m-377 -44 c-2 -13 -4 -5 -4 17 -1 22 1 32 4 23 2 -10 2 -28 0 -40z m-20 -108 c-12 -15 -24 -26 -26 -24 -2 2 4 13 14 24 11 12 15 28 12 42 -6 22 -5 22 8 4 13 -17 12 -22 -8 -46z m333 25 c-7 -14 -18 -25 -23 -25 -6 0 -3 8 6 18 10 10 17 25 17 32 0 7 3 10 7 7 3 -4 0 -18 -7 -32z m-40 -36 c0 -5 -4 -8 -9 -5 -14 9 -42 -5 -34 -17 3 -6 1 -7 -5 -3 -17 10 -15 24 6 29 31 8 42 7 42 -4z m-227 -54 c2 -14 0 -25 -4 -25 -5 0 -9 10 -9 23 0 13 -6 29 -12 37 -11 12 -10 12 3 2 9 -7 19 -24 22 -37z m168 -38 c-26 -26 -33 -29 -43 -18 -11 11 -10 13 0 6 16 -8 62 31 63 54 0 12 2 13 6 2 3 -7 -9 -27 -26 -44z m85 -13 c-6 -19 -12 -28 -14 -20 -3 13 14 56 22 56 2 0 -2 -16 -8 -36z m-216 1 c0 -14 -2 -25 -4 -25 -2 0 -6 11 -8 25 -3 14 -1 25 3 25 5 0 9 -11 9 -25z m-312 -5 c-7 -11 -21 -23 -30 -26 -10 -3 -18 -10 -18 -16 0 -6 -3 -8 -7 -4 -4 3 9 20 28 36 41 35 43 36 27 10z m350 -10 c-12 -19 -28 -27 -28 -14 0 6 30 33 38 34 1 0 -3 -9 -10 -20z m180 -55 c-6 -28 5 -31 49 -14 21 8 25 8 16 -2 -6 -6 -33 -13 -60 -16 -38 -3 -44 -2 -30 7 9 6 17 20 17 30 0 11 3 20 6 20 4 0 4 -11 2 -25z m676 10 c-4 -8 -1 -15 5 -15 7 0 10 -20 9 -52 -1 -44 -2 -46 -5 -15 -5 42 -21 47 -48 17 -10 -11 -20 -18 -23 -15 -7 7 40 44 57 45 11 0 11 3 1 15 -6 8 -9 19 -5 25 9 15 15 12 9 -5z m-456 -22 c-10 -2 -26 -2 -35 0 -10 3 -2 5 17 5 19 0 27 -2 18 -5z m-428 -31 c0 -13 -64 -82 -77 -82 -6 0 -14 -8 -16 -17 -4 -14 -5 -12 -6 5 -1 14 5 22 15 22 15 0 74 57 74 72 0 5 2 8 5 8 3 0 5 -4 5 -8z m160 -134 c0 -38 -5 -34 -13 10 -4 21 -3 31 3 27 6 -3 10 -20 10 -37z m618 35 c-11 -3 -18 -14 -18 -28 0 -26 -35 -44 -52 -27 -8 8 -4 9 10 5 15 -3 23 0 27 11 3 9 7 23 10 31 2 8 12 14 22 14 17 -1 17 -2 1 -6z m-873 -52 c-7 -13 -42 -15 -49 -2 -3 4 6 6 19 3 16 -3 25 0 25 9 0 7 3 10 6 6 3 -3 3 -10 -1 -16z m302 -94 c18 -22 18 -22 -3 -4 -11 9 -26 17 -32 17 -6 0 -13 4 -16 9 -12 18 33 -2 51 -22z m653 8 c-16 -19 -69 -19 -94 0 -11 8 -15 15 -9 15 7 0 15 -4 18 -10 10 -16 75 -12 82 5 3 9 8 14 11 11 3 -3 -1 -12 -8 -21z m-960 -30 c11 -13 11 -18 0 -28 -10 -10 -11 -9 -5 2 5 9 1 19 -10 28 -11 7 -14 13 -8 13 6 0 16 -7 23 -15z m419 -1 c10 -9 -35 -3 -49 6 -11 8 -7 9 15 4 17 -4 32 -8 34 -10z m406 -28 c-37 -49 -43 -46 -8 3 15 22 30 38 32 36 1 -2 -9 -20 -24 -39z m-842 -43 c-3 -10 -9 -22 -13 -28 -5 -5 -10 -19 -13 -30 -4 -15 -5 -13 -6 8 0 15 3 27 8 27 5 0 11 9 14 20 3 11 8 20 11 20 3 0 3 -8 -1 -17z m468 -44 c-5 -26 -9 -34 -10 -19 -1 27 9 73 15 67 2 -2 0 -23 -5 -48z m320 37 c-7 -8 -16 -27 -21 -43 -6 -21 -8 -23 -9 -8 -1 20 24 65 36 65 3 0 0 -6 -6 -14z m-831 -125 c-29 -42 -36 -39 -8 3 13 19 24 33 26 31 3 -2 -6 -18 -18 -34z m542 -25 c-2 -5 -11 6 -18 24 -19 45 -17 51 5 15 10 -16 16 -34 13 -39z m265 -23 c-2 -16 -4 -3 -4 27 0 30 2 43 4 28 2 -16 2 -40 0 -55z m-292 -69 c-9 -18 -15 -23 -15 -12 0 9 5 20 10 23 6 3 11 18 11 33 1 21 3 22 6 6 2 -11 -3 -33 -12 -50z m115 16 c5 0 12 5 15 10 10 15 35 12 35 -5 0 -20 107 -22 112 -1 2 7 10 -2 20 -21 15 -33 15 -34 -1 -19 -12 11 -37 16 -79 16 -48 0 -62 3 -62 15 0 18 -12 19 -27 4 -16 -16 -33 -2 -32 24 2 22 2 22 6 0 2 -13 8 -23 13 -23z m-710 -60 c0 -5 -9 -14 -20 -20 -14 -7 -20 -7 -20 0 0 5 7 10 15 10 8 0 15 5 15 10 0 6 2 10 5 10 3 0 5 -4 5 -10z m570 -90 c0 -10 -69 -54 -75 -48 -2 2 12 12 31 23 21 11 33 24 30 32 -3 8 -1 11 4 8 6 -3 10 -10 10 -15z m400 -6 c8 -7 26 -14 40 -17 l25 -4 -25 -1 c-14 -1 -38 10 -55 24 -16 15 -23 23 -15 19 8 -5 22 -14 30 -21z m174 -22 c10 -46 -3 -72 -35 -72 -14 0 -19 -10 -22 -45 l-4 -45 1 47 c1 42 4 48 26 53 22 6 25 11 23 50 -1 24 -8 47 -15 52 -10 7 -10 9 2 5 8 -2 19 -22 24 -45z m-488 -267 c-3 -8 -11 -15 -18 -14 -10 0 -10 2 0 6 6 2 12 14 13 26 0 12 3 16 6 9 3 -7 2 -19 -1 -27z"/>
<path d="M6621 2133 c-1 -16 -7 -23 -21 -23 -28 0 -25 -15 7 -29 19 -9 23 -15 14 -20 -19 -12 43 -131 68 -131 19 0 36 -38 32 -73 -1 -9 4 -20 12 -23 8 -3 29 -23 47 -45 l32 -41 -17 -38 c-12 -27 -16 -51 -12 -77 4 -25 1 -48 -8 -67 -19 -36 -19 -50 0 -66 23 -19 18 -59 -12 -99 l-28 -36 30 23 c26 21 36 23 88 17 51 -6 61 -4 77 12 21 23 14 42 -15 40 -15 -2 -21 6 -25 33 -5 34 -6 35 -54 38 -48 3 -48 3 -42 34 3 17 6 34 6 39 0 5 11 9 25 9 14 0 25 5 25 10 0 6 9 10 19 10 23 0 40 45 31 80 -10 36 0 91 22 119 22 29 23 41 4 41 -8 0 -22 12 -31 28 -9 15 -31 34 -48 43 -18 9 -33 25 -35 37 -2 12 -7 22 -12 22 -5 0 -15 3 -24 6 -11 4 -16 1 -16 -10 0 -18 -25 -22 -36 -5 -3 6 -15 8 -26 6 -21 -6 -21 -7 -2 60 5 18 1 22 -23 25 -22 2 -31 11 -40 38 -9 26 -12 29 -12 13z"/>
</g>
<g id="layer106" fill="#ea4224" stroke="none">
<path d="M1883 4684 c-90 -53 -141 -212 -113 -346 10 -47 10 -70 1 -111 -9 -39 -10 -64 -2 -97 6 -25 16 -142 22 -260 6 -118 14 -225 18 -238 6 -22 8 -20 39 23 36 51 54 54 63 9 4 -22 8 -25 13 -13 5 12 21 17 59 17 41 0 54 4 65 21 8 11 20 21 27 21 7 0 15 7 19 15 3 9 18 15 37 15 29 0 31 2 26 28 -3 15 -8 37 -12 50 -6 18 -4 22 15 22 13 0 42 -11 66 -25 l42 -25 -12 25 c-6 13 -21 29 -34 35 -29 13 -26 44 5 48 15 2 19 8 16 22 -4 14 1 22 17 28 l23 8 -26 21 c-15 11 -44 23 -65 26 -22 4 -48 17 -62 32 -20 22 -22 28 -12 51 7 14 10 29 7 34 -2 4 -29 11 -59 14 -54 7 -84 26 -71 45 3 6 -1 21 -9 33 -8 13 -20 46 -27 73 -6 28 -17 59 -24 70 -7 11 -15 78 -19 151 -6 107 -4 139 8 168 8 20 12 36 8 36 -4 0 -26 -12 -49 -26z"/>
<path d="M2262 3908 c2 -16 -3 -23 -21 -28 l-24 -6 26 -17 c15 -10 27 -24 27 -32 0 -8 5 -15 10 -15 15 0 12 -56 -4 -69 -8 -7 -18 -26 -21 -43 -4 -17 -22 -44 -41 -60 -19 -17 -31 -35 -28 -43 7 -17 -38 -116 -61 -135 -9 -8 -25 -31 -36 -53 -17 -33 -24 -38 -45 -33 -17 5 -26 2 -30 -9 -4 -8 -14 -15 -23 -15 -9 0 -34 -16 -54 -35 -41 -38 -58 -43 -77 -20 -7 8 -19 15 -28 15 -9 0 -31 5 -49 12 -48 18 -63 -2 -28 -35 32 -29 26 -47 -15 -47 -37 0 -110 -37 -110 -56 0 -7 11 -16 24 -20 17 -4 27 -15 31 -35 5 -20 13 -29 26 -29 11 0 35 -7 54 -14 35 -15 46 -41 25 -62 -6 -6 -2 -21 11 -43 19 -32 21 -32 44 -17 29 19 45 20 80 4 16 -7 25 -19 25 -35 0 -13 6 -23 14 -23 8 0 31 -9 50 -21 l36 -21 0 26 c0 14 3 26 8 26 4 0 12 10 17 23 8 18 19 23 64 25 33 2 66 -3 86 -12 18 -9 44 -16 58 -16 17 0 28 -7 32 -21 4 -11 9 -18 11 -16 3 2 -1 16 -7 31 -24 52 34 106 114 106 19 0 91 18 160 40 95 31 131 47 146 67 30 37 27 68 -9 93 -43 31 -69 88 -80 178 -11 88 -49 174 -87 199 -13 9 -47 20 -75 24 -77 12 -128 72 -128 150 0 41 -59 139 -83 139 -13 0 -17 -6 -15 -22z"/>
<path d="M2160 3812 c0 -4 5 -13 11 -19 6 -6 9 -23 7 -39 -2 -24 -9 -30 -36 -34 -19 -3 -47 -19 -66 -38 -28 -27 -42 -33 -82 -34 -29 -1 -53 -8 -60 -17 -17 -22 -44 -6 -45 26 0 26 -1 26 -12 9 -7 -11 -24 -34 -39 -51 -16 -18 -28 -42 -28 -53 0 -22 -67 -86 -137 -129 -24 -16 -46 -38 -49 -51 -4 -12 -29 -53 -56 -90 -28 -37 -57 -81 -64 -99 -19 -44 -18 -163 1 -189 14 -19 14 -19 30 4 9 12 24 22 33 22 18 0 121 35 130 44 3 3 -3 8 -12 12 -9 3 -16 17 -16 30 0 15 -9 27 -27 36 -62 30 -20 88 75 103 41 7 42 8 22 22 -24 17 -27 61 -5 70 17 6 121 -23 142 -40 9 -6 23 0 48 22 20 17 42 31 49 31 7 0 21 9 31 20 9 10 26 18 37 17 14 -1 26 9 40 36 11 20 24 37 29 37 12 0 59 103 59 130 0 13 15 38 35 57 19 19 35 42 35 51 0 10 7 27 15 39 15 21 13 23 -28 47 -45 26 -67 32 -67 18z"/>
<path d="M1717 3067 c-3 -7 -38 -24 -78 -37 -91 -29 -121 -53 -113 -89 14 -57 68 -187 85 -202 32 -29 146 -72 166 -63 10 4 64 13 121 19 97 11 105 14 140 47 72 68 108 88 182 102 81 16 95 25 85 55 -5 16 -18 22 -56 27 -27 4 -49 10 -49 15 0 5 -24 9 -54 9 l-54 0 -17 -50 c-9 -27 -20 -50 -23 -50 -4 0 -22 9 -40 20 -17 11 -42 19 -55 17 -18 -2 -23 4 -25 30 -4 37 -36 53 -70 34 -53 -28 -99 12 -87 75 5 30 3 35 -20 44 -33 12 -32 13 -38 -3z"/>
</g>
<g id="layer107" fill="#a118a3" stroke="none">
<path d="M7033 4796 c-14 -24 -50 -29 -62 -9 -9 15 -10 12 -11 -19 0 -20 -4 -40 -10 -43 -6 -4 -10 8 -10 29 0 20 -4 36 -8 36 -13 0 -44 -59 -36 -71 6 -10 0 -26 -25 -78 -4 -8 -1 -27 6 -43 8 -15 12 -32 8 -38 -10 -15 -35 -12 -42 6 -3 9 -16 27 -29 39 -23 23 -24 23 -34 5 -5 -10 -10 -25 -10 -33 0 -39 -113 -75 -139 -44 -7 9 -30 18 -51 22 -41 7 -60 22 -64 52 -3 19 -36 32 -36 14 0 -23 -55 -9 -114 28 -85 53 -99 56 -136 30 -28 -21 -29 -24 -15 -45 8 -12 17 -40 21 -61 5 -31 2 -42 -15 -57 -13 -12 -21 -31 -21 -52 0 -18 -9 -50 -20 -71 -21 -40 -18 -83 6 -83 8 0 14 -10 14 -25 0 -14 -5 -25 -10 -25 -11 0 -8 -58 4 -78 4 -7 15 -12 25 -12 10 0 28 -11 41 -25 16 -17 34 -25 57 -25 27 0 43 -10 90 -58 32 -32 66 -62 76 -65 9 -4 17 -11 17 -17 0 -5 6 -10 12 -10 7 0 28 -18 48 -41 l35 -41 27 27 27 26 6 -45 c8 -50 43 -86 84 -86 12 0 21 -4 21 -10 0 -6 9 -6 26 0 14 6 36 7 50 4 28 -7 32 11 9 42 -8 10 -15 34 -15 52 0 32 1 33 35 26 31 -5 35 -4 35 14 0 27 34 50 65 44 19 -3 25 -11 25 -31 0 -15 7 -37 16 -50 11 -16 15 -35 11 -62 -3 -21 -1 -41 3 -44 4 -3 11 22 15 54 7 61 24 82 49 61 9 -7 16 4 25 40 7 27 10 54 7 59 -12 19 5 61 25 61 10 0 19 5 19 10 0 6 9 10 20 10 15 0 20 7 20 24 0 14 7 31 15 40 8 8 15 21 15 28 0 7 10 24 23 38 43 46 54 91 45 185 -8 96 -11 105 -39 105 -21 0 -28 40 -6 40 6 0 1 8 -13 16 -27 17 -50 61 -71 137 -13 46 -21 52 -61 49 -9 -1 -28 12 -42 28 -19 23 -27 27 -33 16z m-96 -163 c-2 -16 -4 -3 -4 27 0 30 2 43 4 28 2 -16 2 -40 0 -55z m13 -293 l0 -60 -132 2 -133 2 128 3 127 4 0 54 c0 30 2 55 5 55 3 0 5 -27 5 -60z m-298 -147 c-4 -174 -8 -191 -10 -45 -1 78 1 142 6 142 4 0 6 -44 4 -97z"/>
<path d="M6290 3940 c-25 -4 -73 -6 -107 -4 -50 3 -63 0 -63 -11 0 -23 41 -45 84 -45 50 0 168 39 163 54 -5 14 -22 16 -77 6z"/>
<path d="M6040 3896 c0 -7 -16 -24 -35 -37 -20 -14 -40 -38 -46 -58 -6 -18 -28 -50 -48 -70 -20 -20 -42 -54 -50 -76 -17 -51 -56 -110 -87 -130 -29 -19 -35 -72 -6 -60 9 4 28 10 41 13 13 3 31 18 40 33 9 16 25 30 36 31 12 2 21 12 23 26 2 15 8 22 18 18 23 -9 70 45 73 84 2 21 12 44 27 58 13 13 24 34 24 47 0 18 5 25 20 25 27 0 44 34 30 60 -6 11 -17 20 -25 20 -8 0 -15 7 -15 15 0 8 -4 15 -10 15 -5 0 -10 -6 -10 -14z"/>
<path d="M6320 3825 c-1 -11 -3 -36 -5 -55 -1 -19 2 -64 9 -100 l12 -65 44 -13 c25 -7 53 -17 62 -23 35 -18 38 -4 8 29 -13 13 -33 22 -51 22 -23 0 -30 4 -27 17 2 9 14 20 28 24 14 4 22 8 18 9 -14 4 -28 7 -38 9 -16 2 -12 51 5 57 8 4 15 16 15 28 0 12 5 27 11 33 11 11 5 33 -9 33 -4 0 -15 -14 -24 -31 -21 -35 -34 -31 -47 14 -6 22 -10 26 -11 12z"/>
<path d="M6135 3761 c-28 -12 -58 -48 -51 -60 4 -6 -1 -22 -10 -36 -16 -24 -22 -95 -9 -115 3 -5 14 -10 24 -10 27 0 101 -68 101 -94 0 -12 9 -29 20 -39 11 -9 20 -26 20 -37 0 -25 14 -25 56 1 38 23 47 66 19 89 -18 15 -19 59 -3 95 11 25 9 29 -28 60 -34 29 -37 36 -26 52 24 35 24 43 0 72 -24 31 -69 40 -113 22z"/>
<path d="M6984 3663 c-12 -2 -26 -15 -33 -29 -16 -35 -101 -64 -88 -30 13 34 -106 36 -165 2 -26 -14 -36 -26 -32 -36 3 -8 8 -31 11 -51 4 -28 0 -41 -20 -62 -15 -17 -31 -25 -40 -21 -21 8 -67 -24 -60 -42 3 -9 -1 -14 -11 -14 -9 0 -19 -8 -23 -17 -3 -10 -12 -26 -20 -35 -11 -13 -12 -21 -3 -37 11 -22 54 -29 65 -11 3 6 15 10 26 10 13 0 19 7 19 23 0 24 25 67 39 67 10 0 25 -48 22 -71 -2 -19 57 -33 74 -18 5 5 19 9 32 9 15 0 28 10 38 31 11 21 34 39 72 56 44 20 54 29 50 44 -4 14 3 24 22 34 43 22 56 41 35 53 -17 10 -17 12 0 53 10 24 22 52 27 61 19 36 13 41 -37 31z"/>
</g>
<g id="layer108" fill="#2595ae" stroke="none">
<path d="M3204 2597 c-3 -8 -20 -20 -39 -27 -19 -8 -35 -17 -35 -21 0 -3 -19 -4 -43 -2 -39 5 -44 3 -55 -21 -6 -14 -19 -26 -28 -26 -11 0 -14 -5 -9 -17 4 -10 16 -42 27 -72 18 -51 18 -54 1 -80 -10 -14 -23 -39 -29 -56 -9 -25 -8 -32 10 -46 19 -15 23 -16 37 -3 25 22 146 8 154 -17 4 -11 13 -19 21 -19 16 0 19 -27 4 -32 -7 -2 -7 -14 -1 -36 9 -30 7 -34 -15 -44 -13 -6 -24 -15 -24 -19 0 -4 -14 -21 -31 -38 l-31 -31 24 -9 c12 -4 36 -5 51 0 25 7 29 5 39 -21 10 -29 28 -41 28 -19 0 8 6 7 16 -2 9 -8 27 -12 40 -11 16 2 24 -3 29 -19 16 -48 77 -83 89 -50 4 9 24 41 45 71 30 41 37 59 30 72 -5 9 -9 30 -9 45 0 16 -6 35 -12 42 -11 10 -10 15 5 25 20 15 23 42 5 49 -10 3 -10 9 -1 25 10 16 9 23 -6 36 -16 15 -19 15 -31 1 -7 -8 -25 -15 -40 -15 -24 0 -30 6 -40 38 -7 20 -20 46 -30 57 -18 20 -17 44 6 138 4 18 2 27 -5 27 -7 0 -20 17 -29 38 -10 21 -23 37 -29 35 -15 -5 -53 32 -53 52 0 19 -29 20 -36 2z"/>
<path d="M3975 2520 c-4 -6 -14 -8 -23 -6 -26 8 -38 -5 -46 -49 -15 -83 -27 -114 -46 -120 -15 -5 -20 -15 -20 -39 0 -25 -9 -40 -37 -65 -72 -64 -111 -62 -99 4 6 30 11 36 27 32 13 -3 19 0 19 10 0 9 11 26 25 39 25 23 33 44 16 44 -6 0 -13 -4 -16 -10 -9 -15 -55 -12 -55 3 0 7 5 18 11 24 23 23 -19 98 -63 115 -16 7 -68 -29 -68 -46 0 -8 30 -3 64 10 11 4 16 1 16 -11 0 -10 7 -23 16 -29 21 -16 9 -82 -19 -105 -11 -9 -28 -24 -39 -33 -10 -10 -22 -18 -27 -18 -5 0 -19 -12 -31 -27 -11 -14 -31 -32 -43 -38 -17 -9 -21 -18 -19 -44 2 -18 -1 -38 -6 -44 -5 -7 -7 -34 -4 -60 4 -43 8 -50 36 -62 26 -11 33 -11 44 -1 23 22 120 -15 137 -51 5 -12 20 -24 35 -27 14 -3 36 -9 49 -12 22 -6 24 -5 18 17 -4 13 -4 41 0 62 l6 38 51 -3 51 -3 0 -46 c0 -38 6 -53 35 -87 39 -45 60 -53 60 -22 0 11 4 20 8 20 5 0 17 6 27 14 15 11 19 28 21 85 2 40 8 79 14 86 24 29 -13 147 -61 199 -11 11 -18 27 -17 36 3 23 -32 70 -53 70 -28 0 -33 19 -10 44 16 17 20 30 15 54 -4 20 -2 38 6 47 7 8 10 15 7 15 -3 0 -9 -5 -12 -10z"/>
<path d="M4530 2271 c0 -4 4 -11 9 -16 18 -19 -1 -60 -40 -88 -21 -15 -38 -33 -36 -40 1 -7 -9 -12 -22 -12 -17 0 -30 -10 -42 -30 -24 -42 -23 -68 3 -80 13 -6 24 -18 26 -28 3 -15 -2 -17 -40 -11 -55 8 -108 32 -108 50 0 7 9 19 19 26 19 13 19 14 -4 36 -26 25 -38 17 -50 -31 -13 -49 -78 -56 -96 -11 -8 22 -37 34 -40 17 -8 -46 -10 -61 -10 -78 -1 -58 -11 -86 -35 -97 -13 -6 -24 -19 -24 -30 0 -13 -8 -18 -30 -18 -33 0 -40 -15 -12 -25 22 -6 76 -79 84 -112 3 -12 0 -30 -8 -40 -7 -10 -14 -39 -14 -64 0 -79 -10 -109 -34 -109 -31 0 -50 -19 -65 -62 -10 -32 -10 -43 5 -73 14 -29 18 -33 28 -21 6 8 20 16 31 18 17 2 19 -2 17 -27 -2 -16 -12 -38 -23 -48 -28 -26 -24 -47 9 -48 25 -2 35 -3 85 -7 15 -2 17 -8 12 -36 -4 -18 -2 -50 4 -71 7 -26 7 -44 0 -57 -26 -48 -33 -289 -9 -328 5 -8 17 -9 46 -1 21 5 66 12 99 14 64 4 102 21 111 50 10 32 -13 42 -99 42 -101 0 -117 8 -86 41 12 13 28 24 35 24 13 0 24 22 24 51 0 14 7 19 29 19 38 0 59 -25 43 -51 -11 -18 -11 -18 6 -8 20 13 29 11 77 -20 17 -11 38 -20 48 -20 18 -1 24 -26 8 -35 -5 -3 -11 -19 -13 -35 -3 -22 0 -31 13 -34 22 -6 49 22 49 51 0 34 7 31 90 -35 15 -13 35 -23 43 -23 8 0 20 -7 27 -15 9 -11 17 -12 31 -4 11 5 24 7 30 4 5 -4 16 -2 24 5 15 13 42 3 65 -24 8 -10 29 -16 60 -16 40 0 48 3 58 25 19 40 14 99 -12 175 -22 61 -24 78 -16 128 6 31 10 78 10 104 0 25 5 48 11 50 8 3 7 14 -5 35 -24 48 -20 66 19 87 38 21 42 31 20 59 -10 14 -11 26 -3 47 14 41 7 63 -22 70 -14 3 -31 18 -38 33 -14 30 -28 33 -66 16 -20 -10 -30 -9 -50 5 -14 9 -36 16 -50 16 -14 0 -27 4 -31 9 -3 5 -19 12 -35 16 -23 5 -34 17 -51 53 -13 31 -18 57 -15 77 4 17 8 41 11 55 2 14 13 32 24 42 25 19 27 63 5 76 -19 11 -48 72 -34 72 6 0 10 8 10 19 0 10 7 24 15 31 8 7 15 23 15 36 0 23 24 54 42 54 6 0 6 6 -2 15 -8 10 -11 33 -8 65 l5 49 -41 19 c-51 24 -116 43 -116 33z"/>
<path d="M3844 1999 c-4 -7 -7 -32 -6 -56 0 -23 -4 -46 -9 -49 -16 -9 -109 17 -109 30 0 18 -33 46 -53 46 -10 0 -26 5 -37 12 -15 10 -22 9 -38 -6 -13 -11 -22 -14 -27 -7 -13 23 -35 9 -72 -45 -59 -87 -64 -96 -50 -112 15 -19 35 -53 43 -74 3 -10 13 -18 20 -18 8 0 21 -15 28 -32 8 -18 21 -49 30 -68 8 -19 27 -48 42 -64 27 -29 52 -115 36 -125 -28 -19 -18 -66 11 -55 12 4 17 18 17 50 0 34 5 46 21 55 24 12 136 3 157 -14 23 -18 110 -10 139 12 14 12 31 21 38 21 15 0 25 32 25 84 0 22 5 54 12 72 9 26 9 38 -1 58 -16 30 -61 77 -87 92 -16 10 -17 13 -5 28 14 17 11 25 -32 69 -14 13 -18 30 -15 60 3 42 3 42 -34 45 -21 2 -39 -2 -44 -9z"/>
<path d="M3030 1864 c0 -5 16 -24 35 -43 42 -40 43 -48 10 -61 -16 -6 -23 -14 -19 -25 3 -8 10 -15 15 -15 18 0 30 -51 17 -69 -10 -13 -10 -14 2 -3 22 19 28 15 25 -17 -3 -39 -32 -84 -51 -77 -11 4 -13 -2 -8 -33 5 -34 3 -40 -15 -46 -11 -3 -21 -11 -21 -16 0 -6 -7 -17 -15 -25 -12 -12 -12 -19 -2 -35 10 -17 9 -22 -6 -34 -17 -12 -17 -14 2 -27 11 -8 24 -26 30 -40 7 -18 19 -27 41 -30 36 -5 46 4 25 22 -8 7 -15 24 -15 37 0 23 3 25 35 21 19 -2 36 1 39 7 4 12 -32 75 -53 91 -22 17 -4 34 28 28 29 -6 43 9 50 55 0 4 15 26 32 47 24 31 30 46 27 79 -3 35 -1 40 17 37 50 -8 60 -6 63 12 3 12 -7 27 -25 42 -24 19 -26 25 -16 42 11 19 8 20 -57 30 -38 6 -78 8 -89 5 -10 -2 -22 0 -25 6 -4 6 -14 11 -23 11 -9 0 -25 7 -35 17 -10 9 -18 12 -18 7z"/>
<path d="M2856 1775 c-8 -23 4 -45 30 -56 32 -12 30 -25 -5 -32 -16 -3 -30 -14 -33 -24 -7 -28 9 -63 29 -63 9 0 29 -11 43 -25 24 -23 30 -24 58 -14 45 16 59 44 30 60 -12 7 -35 12 -50 11 -26 -1 -27 1 -25 49 1 27 5 49 10 49 21 0 1 27 -32 43 -46 21 -47 21 -55 2z"/>
<path d="M3718 1387 c-16 -13 -28 -29 -28 -37 0 -19 -24 -87 -33 -97 -4 -4 -19 5 -33 20 -29 31 -52 35 -61 10 -3 -10 -13 -26 -21 -35 -8 -10 -12 -27 -9 -40 4 -13 0 -36 -8 -52 -17 -33 -19 -56 -5 -56 5 0 12 -11 16 -25 7 -26 20 -33 26 -13 2 6 15 -4 28 -23 13 -19 28 -36 33 -37 23 -10 67 -56 67 -70 0 -10 21 -50 47 -90 40 -62 51 -73 70 -69 15 3 23 -1 23 -9 0 -8 11 -14 25 -14 14 0 28 -7 32 -15 10 -29 74 -52 134 -50 81 3 82 4 75 99 -4 47 -2 118 5 171 16 121 13 221 -6 206 -17 -14 -74 -21 -80 -11 -3 6 -24 10 -47 10 l-41 0 7 -41 c4 -22 13 -51 22 -64 32 -49 -16 -93 -55 -51 -19 20 -21 24 -21 46 0 6 -10 20 -22 32 -20 20 -20 24 -9 83 11 54 11 67 -3 93 -8 16 -22 32 -31 35 -9 4 -15 19 -15 37 0 16 -5 30 -10 30 -6 0 -15 11 -20 25 -12 30 -17 31 -52 2z"/>
<path d="M3167 1164 c-15 -8 -33 -14 -40 -13 -6 1 -20 1 -30 0 -15 -1 -15 -4 -5 -21 16 -26 -1 -55 -31 -54 -11 0 -21 -3 -21 -8 0 -4 6 -8 14 -8 28 0 28 -33 -1 -56 -15 -13 -22 -23 -15 -24 6 0 12 -7 12 -15 0 -10 9 -13 31 -10 17 2 32 5 33 7 21 47 45 60 53 29 6 -23 19 -28 25 -9 3 7 9 8 19 3 8 -5 22 -8 32 -7 9 2 17 -2 17 -7 0 -6 5 -11 10 -11 6 0 20 -9 32 -19 17 -16 24 -18 39 -8 11 7 25 24 32 40 6 15 18 27 24 27 19 0 16 57 -2 64 -8 3 -20 17 -25 31 -7 17 -17 25 -34 25 -14 0 -27 -4 -31 -10 -10 -17 -35 1 -35 26 0 17 -8 27 -26 34 -33 13 -43 12 -77 -6z"/>
</g>
<g id="layer109" fill="#b1b41c" stroke="none">
<path d="M1515 2774 c-10 -8 -29 -14 -42 -14 -19 0 -28 -10 -43 -46 -11 -25 -20 -57 -20 -70 0 -14 -11 -47 -25 -74 -27 -53 -63 -78 -142 -99 -30 -8 -46 -20 -57 -41 -8 -17 -10 -32 -5 -36 18 -11 8 -49 -17 -68 -18 -13 -36 -17 -60 -13 -32 5 -34 4 -34 -24 0 -16 -4 -29 -8 -29 -5 0 -14 -33 -21 -72 -11 -62 -18 -77 -44 -100 -18 -14 -30 -28 -27 -31 3 -2 22 -7 42 -10 29 -4 45 0 73 19 23 16 50 24 76 24 29 0 54 9 86 30 24 17 53 30 64 30 24 0 26 38 4 80 -9 18 -11 31 -5 35 6 3 10 18 10 33 0 47 20 101 42 113 12 6 38 8 65 4 34 -5 46 -12 53 -31 8 -19 16 -24 40 -22 16 1 30 6 30 10 0 15 -23 58 -32 58 -4 0 -8 9 -8 20 0 11 -7 20 -15 20 -9 0 -15 9 -15 25 0 14 4 25 10 25 5 0 14 9 20 21 9 16 8 24 -4 38 -9 10 -16 25 -16 34 0 9 -4 17 -9 17 -13 0 -34 67 -27 85 6 17 52 20 61 5 15 -24 35 -9 35 24 0 42 -9 49 -35 30z"/>
<path d="M1832 2258 c-7 -7 -12 -26 -12 -44 0 -18 -3 -34 -7 -36 -5 -1 -15 -14 -24 -28 -13 -20 -25 -25 -60 -26 -24 -1 -71 -5 -104 -9 -92 -11 -187 15 -236 64 -22 21 -39 43 -39 49 0 5 -7 15 -15 22 -13 11 -13 7 1 -26 17 -41 13 -127 -8 -151 -10 -13 -8 -14 32 -25 9 -3 18 -26 25 -64 9 -55 12 -59 40 -64 26 -4 30 -10 33 -42 l3 -37 62 -3 62 -3 3 -187 2 -188 25 0 c21 0 25 5 25 30 0 26 3 30 23 26 95 -20 92 -21 116 34 21 49 26 79 19 128 -4 31 44 62 70 46 9 -6 18 -21 20 -33 2 -11 9 -21 16 -21 8 0 19 -7 26 -15 7 -8 23 -15 36 -15 12 0 25 -4 28 -9 3 -5 34 -11 68 -15 35 -3 68 -7 74 -8 5 -1 8 -13 6 -28 -5 -32 19 -46 50 -29 16 9 19 17 14 41 -3 17 -6 37 -6 44 0 8 -6 14 -12 14 -34 1 -90 76 -81 108 4 17 -10 36 -62 86 -59 57 -66 66 -56 85 7 12 17 21 23 21 18 0 -32 49 -81 81 -67 43 -80 72 -68 146 13 81 1 113 -31 81z"/>
<path d="M1265 2116 c-11 -6 -32 -19 -47 -30 -19 -12 -36 -16 -56 -11 -22 4 -39 0 -67 -19 -26 -18 -51 -26 -80 -26 -42 0 -43 -1 -50 -37 -3 -21 -17 -55 -31 -75 -19 -30 -24 -50 -24 -105 0 -73 21 -194 44 -258 8 -22 15 -50 16 -62 l0 -22 300 -3 300 -3 0 176 c0 198 3 189 -75 189 -44 0 -55 10 -55 50 0 11 -11 22 -29 28 -26 9 -30 17 -38 64 -7 44 -13 55 -36 66 -27 13 -35 36 -17 47 6 3 10 15 10 26 0 22 -32 25 -65 5z"/>
<path d="M1815 1700 c-14 -16 -15 -22 -5 -35 16 -19 7 -64 -25 -133 -22 -47 -27 -52 -50 -47 -14 3 -36 7 -49 10 -19 4 -25 0 -30 -21 -7 -25 -8 -25 -102 -23 -52 1 -96 0 -98 -2 -2 -2 5 -98 15 -214 10 -115 18 -218 19 -227 0 -16 11 -18 78 -18 l79 0 -10 54 -10 54 44 55 c28 36 52 56 65 56 12 1 27 8 34 16 8 10 17 12 29 5 21 -11 63 -2 55 12 -3 5 0 16 8 25 7 9 13 33 14 54 0 20 7 45 14 54 11 13 14 44 11 129 -2 86 0 108 9 99 7 -6 19 -9 27 -6 8 3 18 1 22 -5 10 -16 35 3 28 22 -4 9 -17 16 -30 16 -14 0 -30 7 -37 15 -7 8 -19 15 -26 15 -8 0 -14 8 -14 18 0 20 -18 42 -35 42 -7 0 -20 -9 -30 -20z"/>
<path d="M2226 1679 c9 -43 8 -42 21 -20 10 15 8 22 -8 37 -19 17 -19 16 -13 -17z"/>
<path d="M2242 1636 c-19 -9 -22 -16 -17 -43 4 -25 1 -35 -19 -50 -23 -19 -23 -20 -6 -43 26 -35 46 -20 53 40 7 61 22 83 51 76 18 -5 18 -3 -4 14 -28 22 -26 22 -58 6z"/>
<path d="M2005 1591 c-6 -20 -12 -22 -52 -17 l-45 4 7 -81 c4 -45 16 -103 27 -130 13 -29 18 -58 15 -75 -7 -33 1 -48 28 -53 11 -3 21 -13 24 -24 2 -11 10 -25 19 -31 14 -10 14 -17 4 -52 -15 -50 -7 -88 20 -95 21 -6 21 -16 3 -59 -6 -15 -2 -18 20 -18 31 0 89 25 107 47 7 8 11 35 10 59 -1 32 3 46 13 50 20 8 81 -21 91 -43 6 -14 9 -10 14 17 3 19 11 34 17 33 6 -1 13 13 16 33 4 21 17 44 36 60 17 14 31 32 31 40 0 17 12 18 27 3 7 -7 9 -3 5 17 -4 24 -2 26 17 21 15 -4 21 -1 21 11 0 21 -71 72 -99 72 -13 0 -25 9 -30 24 -10 25 -56 40 -96 30 -13 -3 -39 3 -64 15 -31 16 -41 27 -41 46 0 14 6 25 13 26 6 0 2 5 -10 11 -14 7 -23 20 -23 34 0 29 -5 31 -67 40 -46 6 -52 4 -58 -15z"/>
<path d="M968 1446 c-10 -7 -18 -25 -18 -40 0 -15 -14 -56 -30 -91 -31 -67 -33 -115 -4 -115 22 0 18 -63 -5 -77 -13 -8 -20 -27 -24 -60 -2 -26 -8 -58 -12 -71 l-8 -23 254 6 c140 3 277 8 306 11 l52 5 -4 42 c-6 51 -35 392 -35 413 0 20 -446 21 -472 0z"/>
<path d="M864 1213 c-3 -13 -10 -23 -15 -23 -5 0 -9 -11 -9 -24 0 -13 -7 -29 -15 -36 -8 -7 -15 -21 -15 -30 0 -18 -49 -50 -77 -50 -7 0 -16 -7 -19 -15 -4 -8 -11 -15 -17 -15 -6 0 -18 -7 -28 -16 -18 -16 -59 -12 -59 7 0 5 -15 9 -32 9 -27 -1 -30 -2 -15 -11 42 -25 2 -45 -49 -24 -19 8 -34 21 -34 29 0 8 -10 18 -22 21 -13 4 -35 19 -50 33 -25 23 -28 24 -28 7 0 -10 8 -27 17 -37 25 -27 3 -46 -36 -31 -31 11 -51 2 -51 -24 0 -7 -7 -13 -16 -13 -8 0 -13 -4 -10 -9 3 -5 -1 -14 -8 -20 -12 -10 -12 -18 2 -52 16 -38 19 -40 52 -35 36 6 70 -14 70 -42 0 -11 -8 -13 -29 -9 -31 7 -41 -5 -41 -48 0 -27 33 -38 63 -20 12 7 22 7 34 -1 23 -14 28 -34 9 -34 -9 0 -16 -8 -16 -18 0 -10 -7 -28 -16 -40 -14 -20 -14 -22 3 -22 10 0 31 -9 47 -19 17 -11 33 -18 37 -15 4 2 26 -3 49 -12 37 -15 42 -15 59 0 9 9 55 28 100 42 l83 26 -7 158 -7 157 41 7 c35 5 43 11 56 42 8 20 15 54 15 75 0 28 6 42 20 51 22 14 27 58 7 58 -8 0 -19 10 -25 23 l-11 22 -7 -22z"/>
<path d="M330 1110 c6 -11 15 -20 20 -20 6 0 5 9 -2 20 -7 11 -16 20 -21 20 -4 0 -3 -9 3 -20z"/>
<path d="M2526 1116 c-44 -25 -96 -85 -96 -110 0 -13 -4 -27 -10 -31 -5 -3 -7 -12 -3 -20 3 -9 0 -29 -7 -45 -11 -25 -9 -33 9 -56 28 -36 27 -62 -4 -74 -14 -5 -25 -12 -25 -14 0 -3 7 -3 15 0 24 9 18 -14 -10 -38 -14 -12 -25 -32 -25 -44 0 -13 -4 -26 -10 -29 -5 -3 -10 -15 -10 -26 0 -11 -7 -22 -15 -25 -8 -4 -15 -12 -15 -20 0 -8 -9 -14 -20 -14 -11 0 -20 -4 -20 -9 0 -17 -27 -19 -57 -4 -23 11 -42 12 -74 6 -51 -10 -61 -28 -19 -36 35 -8 41 -36 8 -38 -13 -1 -2 -6 24 -13 45 -11 87 -36 60 -36 -7 0 -12 -7 -12 -15 0 -8 9 -15 20 -15 11 0 20 -4 20 -9 0 -13 71 -53 85 -47 7 2 16 1 21 -4 5 -5 27 -11 49 -13 24 -2 41 -10 43 -18 1 -8 20 -22 42 -33 24 -11 36 -24 33 -32 -3 -8 6 -16 24 -20 15 -4 33 -10 38 -14 38 -30 242 -14 263 21 10 15 7 20 -23 30 -42 16 -45 29 -7 29 16 0 32 3 36 8 12 11 100 8 111 -4 13 -15 65 -27 65 -15 0 5 -7 11 -15 15 -8 3 -15 12 -15 20 0 8 -6 19 -14 23 -20 12 -30 92 -12 99 11 4 13 19 11 57 -6 82 -13 98 -41 91 -39 -10 -46 4 -21 39 33 44 38 64 21 77 -11 10 -14 9 -14 -8 0 -12 -8 -25 -17 -30 -13 -8 -20 -4 -30 15 -11 22 -10 27 10 45 15 13 17 18 5 15 -9 -3 -24 0 -34 7 -9 7 -25 11 -34 9 -13 -3 -19 4 -23 26 -5 22 -12 31 -27 31 -11 0 -20 5 -20 10 0 6 -7 10 -15 10 -8 0 -20 9 -27 20 -10 15 -24 20 -54 20 -48 0 -59 10 -67 65 -7 45 -41 172 -48 179 -2 2 -13 -1 -23 -8z"/>
<path d="M1255 967 c-176 -4 -354 -11 -395 -15 l-75 -7 3 -95 c1 -52 5 -120 8 -151 5 -55 7 -57 37 -62 18 -2 49 4 75 15 38 17 49 18 71 8 14 -7 41 -14 60 -16 19 -2 37 -8 40 -13 9 -14 98 -25 105 -12 4 6 18 11 31 11 22 0 108 51 141 84 19 19 28 20 57 4 12 -7 32 -11 44 -9 12 1 36 -5 53 -14 27 -14 39 -15 80 -4 59 15 80 8 81 -28 2 -24 2 -25 6 -5 4 22 25 28 57 16 18 -7 22 -39 6 -49 -17 -11 -11 -44 18 -93 19 -33 32 -47 45 -44 10 2 17 -3 17 -12 0 -9 5 -16 10 -16 7 0 7 6 0 20 -6 11 -16 20 -23 20 -19 0 -51 70 -38 83 6 6 11 23 11 38 0 21 7 31 29 40 16 7 27 17 24 22 -7 12 16 27 41 27 11 0 30 -10 42 -21 21 -20 23 -20 22 -3 -1 11 2 29 6 41 6 19 2 25 -21 35 -15 7 -40 25 -55 41 -25 28 -28 28 -50 13 -12 -9 -26 -16 -30 -16 -12 0 -9 35 4 48 8 8 4 14 -18 22 -16 6 -47 30 -69 54 -50 55 -36 54 -450 43z"/>
</g>
<g id="layer110" fill="#d5d922" stroke="none">
<path d="M1413 2598 c-4 -7 -18 -34 -30 -60 -22 -47 -61 -76 -124 -91 -53 -13 -69 -36 -72 -107 l-2 -65 -39 2 c-52 2 -96 -39 -96 -90 0 -18 -11 -56 -25 -83 -14 -27 -25 -50 -25 -51 0 -2 16 -3 35 -3 23 0 41 7 52 20 13 15 30 20 65 20 36 0 58 7 91 30 25 17 54 30 66 30 25 0 27 21 6 54 -8 12 -17 49 -21 82 -4 48 -2 65 15 91 22 35 71 54 115 46 25 -5 26 -3 26 34 0 22 5 54 11 72 9 25 8 36 -5 56 -18 28 -31 31 -43 13z"/>
<path d="M1346 2122 c-4 -15 -9 -35 -12 -44 -4 -13 2 -21 20 -27 21 -8 26 -19 31 -65 7 -52 9 -57 39 -64 27 -7 31 -13 34 -45 l3 -36 62 -3 62 -3 3 -182 2 -183 25 0 c20 0 25 5 25 25 0 21 4 25 23 21 79 -16 85 -16 101 9 27 42 41 110 28 139 -10 22 -8 28 20 51 27 23 33 24 52 12 11 -8 22 -23 24 -33 1 -11 15 -25 30 -31 82 -35 107 -43 137 -43 18 0 47 -3 64 -6 26 -5 30 -10 25 -28 -7 -31 18 -51 45 -36 38 20 23 43 -54 86 -11 6 -26 24 -34 40 -38 77 -48 93 -92 144 -39 45 -48 63 -51 100 -3 42 -6 47 -61 84 -45 32 -59 48 -68 78 -11 42 -19 45 -53 23 -17 -12 -59 -17 -148 -20 -134 -5 -192 5 -246 44 l-30 21 -6 -28z"/>
<path d="M1246 2100 c-30 -23 -50 -30 -84 -30 -29 0 -53 -7 -69 -20 -17 -13 -41 -20 -69 -20 -42 0 -43 -1 -55 -42 -6 -24 -19 -59 -29 -78 -37 -71 -35 -199 5 -315 8 -22 19 -59 25 -82 l11 -43 294 0 295 0 0 175 0 175 -46 0 c-61 0 -84 14 -84 50 0 20 -5 30 -15 30 -25 0 -55 38 -55 71 0 41 -17 69 -41 69 -18 0 -20 5 -17 28 3 15 9 35 13 45 12 28 -34 21 -79 -13z"/>
<path d="M1822 1702 c-16 -13 -19 -21 -12 -32 16 -25 11 -59 -17 -124 -15 -33 -28 -62 -29 -64 -1 -2 -25 1 -52 6 -48 8 -51 8 -54 -12 -3 -19 -10 -21 -102 -24 l-99 -3 7 -92 c3 -51 11 -154 18 -229 l11 -138 57 0 57 0 -4 48 c-4 42 -1 53 34 102 48 68 94 100 144 100 l38 0 26 83 c14 46 32 92 40 103 10 13 14 45 15 102 0 64 3 81 13 75 6 -4 20 -6 30 -5 9 2 17 -1 17 -7 0 -6 7 -8 15 -5 24 10 17 33 -12 40 -16 4 -35 12 -43 19 -8 6 -23 15 -32 18 -10 4 -15 12 -12 21 9 25 -28 37 -54 18z"/>
<path d="M2010 1593 c0 -18 -41 -34 -57 -21 -23 19 -33 -4 -33 -75 0 -50 6 -85 20 -116 11 -24 20 -58 20 -76 0 -25 10 -44 40 -76 42 -45 46 -62 31 -117 -8 -27 -6 -36 15 -61 13 -16 24 -36 24 -45 0 -8 8 -20 18 -25 31 -17 58 11 66 66 3 26 10 54 14 60 9 15 46 18 79 8 28 -9 73 34 73 69 0 16 8 30 21 37 34 18 68 62 69 87 0 15 -9 26 -27 34 -16 7 -41 23 -56 35 -20 16 -42 23 -70 23 -59 0 -115 18 -127 40 -13 25 -13 63 2 78 8 8 8 15 -2 26 -7 9 -10 23 -6 31 7 18 -2 22 -66 28 -37 3 -48 1 -48 -10z"/>
<path d="M970 1428 c0 -13 -16 -59 -35 -103 -38 -86 -44 -125 -20 -125 8 0 18 -12 21 -26 5 -20 1 -31 -19 -48 -20 -16 -27 -32 -30 -71 -2 -27 -7 -58 -12 -68 -8 -20 38 -20 470 -1 l130 6 -17 191 c-9 106 -17 209 -17 230 l-1 37 -235 0 -235 0 0 -22z"/>
<path d="M849 1153 c-12 -27 -26 -59 -33 -72 -15 -34 -150 -111 -216 -125 -65 -14 -113 -6 -145 24 -22 21 -25 21 -47 6 -12 -9 -35 -16 -51 -16 -30 0 -77 -39 -77 -64 0 -23 29 -46 59 -46 40 0 61 -20 64 -63 2 -25 11 -43 25 -53 27 -18 27 -33 5 -74 l-18 -31 30 -25 c17 -13 38 -24 47 -24 9 0 27 -5 40 -11 19 -8 35 -5 79 15 30 13 81 30 113 37 l57 14 -7 157 -7 157 41 7 c36 6 43 11 57 47 9 22 13 52 10 67 -5 21 0 33 19 51 30 29 32 37 9 55 -27 20 -32 18 -54 -33z"/>
<path d="M2492 1057 c-33 -22 -44 -49 -56 -133 -4 -28 -1 -47 9 -60 25 -32 18 -81 -19 -137 -18 -29 -40 -70 -47 -92 -30 -85 -118 -136 -173 -100 -20 14 -26 14 -26 4 0 -19 10 -32 43 -52 15 -10 27 -26 27 -37 0 -10 12 -28 26 -39 25 -20 116 -51 149 -51 16 0 55 -27 111 -77 13 -13 47 -32 74 -44 46 -20 55 -20 115 -9 36 7 65 14 65 17 0 2 -7 11 -15 20 -38 38 18 71 121 72 l51 1 -5 50 c-2 27 0 56 6 62 6 7 8 33 5 58 -4 38 -10 47 -37 60 -22 11 -31 22 -32 40 0 14 -8 39 -17 57 -9 18 -17 39 -17 47 0 8 -10 16 -22 18 -13 2 -29 15 -36 31 -7 15 -30 36 -51 46 -20 11 -43 27 -50 35 -8 9 -28 16 -47 16 -38 0 -64 22 -64 55 0 28 -41 165 -49 164 -4 0 -21 -10 -39 -22z"/>
<path d="M1095 959 c-104 -3 -216 -7 -247 -8 l-58 -1 0 -82 c0 -120 11 -216 25 -222 7 -2 42 2 79 10 60 12 74 12 124 -2 32 -9 63 -21 70 -27 23 -18 114 0 157 33 22 16 59 39 83 51 42 20 45 20 115 4 40 -9 102 -16 139 -15 64 1 140 -14 165 -33 14 -10 67 18 97 52 14 15 15 24 6 40 -12 24 -23 26 -49 9 -27 -17 -48 -4 -55 34 -5 21 -29 57 -70 101 l-64 67 -163 -2 c-90 -1 -249 -5 -354 -9z"/>
<path d="M340 744 c0 -9 5 -14 12 -12 18 6 21 28 4 28 -9 0 -16 -7 -16 -16z"/>
</g>
<g id="layer111" fill="#47c0da" stroke="none">
<path d="M3150 2515 c-14 -8 -41 -14 -61 -15 -55 0 -63 -16 -49 -98 9 -58 9 -75 -3 -105 -9 -19 -13 -38 -9 -41 3 -3 32 -6 64 -6 64 0 108 -17 132 -52 23 -33 20 -103 -6 -151 -17 -30 -20 -41 -10 -45 7 -2 25 -14 41 -27 15 -13 39 -27 53 -30 14 -4 45 -26 69 -51 43 -43 59 -53 59 -35 0 6 11 22 24 36 39 42 59 91 46 115 -6 11 -8 25 -4 31 3 6 1 22 -6 35 -11 20 -11 27 5 44 26 29 8 43 -62 45 -50 2 -60 6 -83 33 -40 48 -60 113 -53 175 11 105 -72 186 -147 142z"/>
<path d="M3882 2328 c-5 -7 -21 -38 -36 -69 -29 -61 -84 -109 -127 -109 -35 0 -69 27 -69 55 0 37 -12 37 -59 -1 -24 -19 -48 -34 -52 -34 -5 0 -9 -11 -9 -24 0 -13 -7 -29 -15 -36 -11 -9 -12 -16 -5 -25 6 -7 8 -25 4 -39 -5 -21 -1 -28 27 -45 30 -18 34 -19 44 -4 10 14 17 15 41 6 16 -6 41 -14 56 -17 16 -4 31 -17 39 -35 9 -21 22 -30 44 -34 16 -2 37 -6 45 -8 11 -3 15 4 16 26 2 89 -1 85 58 85 l55 0 -1 -49 c-1 -43 3 -53 30 -81 18 -17 32 -36 32 -41 0 -5 7 -9 15 -9 9 0 15 9 15 21 0 12 8 23 19 26 62 16 44 162 -41 328 -54 108 -98 147 -126 113z"/>
<path d="M4559 2176 c-11 -20 -24 -36 -28 -36 -5 0 -24 -15 -43 -32 -20 -18 -46 -40 -58 -48 -22 -15 -22 -17 -6 -47 21 -42 20 -80 -2 -92 -24 -13 -100 3 -146 30 -29 17 -45 20 -79 15 -35 -5 -48 -3 -70 14 l-27 21 0 -38 c0 -58 -10 -84 -37 -94 -13 -5 -22 -13 -19 -18 9 -15 -22 -33 -44 -26 -11 4 -20 2 -20 -4 0 -6 6 -11 13 -11 37 0 110 -127 88 -154 -5 -6 -12 -36 -15 -66 -12 -100 -16 -110 -39 -110 -37 0 -53 -24 -49 -74 4 -43 6 -46 32 -46 42 0 56 -23 43 -73 -13 -49 -10 -57 23 -57 55 0 78 -34 54 -80 -6 -12 -6 -28 1 -48 8 -23 6 -43 -6 -86 -18 -63 -21 -263 -4 -280 5 -5 143 11 171 20 41 13 14 25 -52 22 -61 -2 -73 1 -92 20 -22 22 -22 22 -4 57 11 19 23 35 27 35 4 0 22 20 39 45 41 60 68 60 139 0 28 -24 69 -49 90 -55 21 -5 63 -28 94 -50 86 -62 139 -82 192 -75 35 6 52 3 83 -15 49 -28 84 -24 96 12 7 21 3 45 -18 110 -25 72 -27 91 -21 152 4 39 6 112 6 162 -1 79 2 95 20 118 15 18 22 44 24 78 2 47 0 53 -33 82 -27 24 -45 31 -81 32 -70 2 -187 50 -214 88 -29 41 -32 172 -4 203 23 27 21 56 -8 111 -30 57 -32 88 -4 104 47 29 81 142 57 188 -21 38 -45 37 -69 -4z"/>
<path d="M3843 1955 c3 -32 0 -50 -10 -60 -17 -17 -29 -19 -38 -5 -3 6 -19 10 -35 10 -21 0 -32 7 -42 27 -14 28 -23 34 -78 52 -29 9 -37 9 -47 -5 -9 -12 -16 -13 -32 -5 -11 6 -21 11 -24 11 -2 0 -25 -31 -51 -70 -51 -74 -51 -72 0 -135 17 -22 44 -64 58 -93 34 -67 92 -159 108 -168 6 -4 41 -11 77 -15 145 -18 214 -28 219 -33 2 -3 16 4 30 14 13 11 33 20 42 20 19 0 30 42 30 112 0 20 5 40 11 44 27 16 -35 128 -77 138 -24 7 -34 39 -14 51 6 3 -3 20 -20 38 -23 25 -30 41 -30 75 l0 42 -41 0 -42 0 6 -45z"/>
<path d="M3094 1805 c19 -28 18 -29 -2 -46 -19 -15 -20 -18 -7 -29 8 -7 15 -20 15 -30 0 -10 6 -23 14 -29 25 -21 8 -104 -25 -121 -11 -7 -19 -21 -19 -38 0 -17 -11 -37 -30 -55 -23 -22 -29 -34 -24 -53 3 -13 1 -30 -5 -38 -9 -10 -7 -17 5 -27 9 -7 20 -23 25 -36 15 -39 35 -28 31 17 -4 40 -4 40 32 40 45 0 47 17 6 60 -39 42 -36 65 9 65 29 0 36 4 44 30 5 17 17 39 27 50 30 34 42 65 35 94 -8 37 17 61 46 43 44 -28 54 0 13 39 -14 13 -23 31 -21 41 4 12 -3 18 -22 22 -43 9 -100 11 -107 3 -4 -4 -19 0 -33 10 l-26 16 19 -28z"/>
<path d="M2870 1759 c0 -8 32 -29 44 -29 15 0 3 16 -19 27 -14 6 -25 7 -25 2z"/>
<path d="M2888 1672 c-34 -7 -33 -52 1 -52 9 0 27 -11 39 -25 25 -28 44 -32 62 -10 18 21 2 38 -30 31 -30 -6 -46 6 -52 39 -2 13 -9 19 -20 17z"/>
<path d="M3702 1296 c-28 -77 -57 -95 -115 -71 -13 6 -20 -1 -32 -29 -27 -65 -21 -82 59 -166 40 -42 93 -109 116 -149 33 -55 51 -75 78 -87 20 -8 50 -25 66 -38 74 -55 116 -66 185 -45 l36 11 1 131 c0 73 5 149 12 171 6 21 8 51 5 67 -5 25 -8 27 -26 18 -12 -7 -42 -9 -74 -5 -51 6 -53 5 -53 -18 0 -14 5 -28 10 -31 12 -7 13 -65 2 -81 -10 -16 -48 -34 -70 -34 -24 0 -44 22 -78 85 -24 45 -26 58 -21 122 3 41 1 75 -4 79 -5 3 -21 28 -34 55 -14 27 -31 49 -38 49 -7 0 -19 -15 -25 -34z"/>
<path d="M3180 1153 c-14 -7 -35 -13 -47 -13 -16 0 -20 -5 -16 -20 3 -12 -2 -29 -13 -41 -11 -12 -17 -32 -16 -45 2 -15 -3 -26 -12 -30 -23 -9 -20 -34 4 -34 11 0 20 7 20 15 0 8 11 22 25 31 22 14 26 14 47 0 12 -9 36 -16 52 -16 16 0 44 -11 62 -25 41 -32 60 -32 68 0 3 13 15 29 26 35 27 14 25 22 -13 64 -24 25 -36 33 -44 25 -6 -6 -23 -9 -39 -7 -24 2 -29 8 -29 29 1 34 -38 51 -75 32z"/>
</g>
<g id="layer112" fill="#81d884" stroke="none">
<path d="M5484 3288 c-49 -97 -103 -217 -127 -278 -21 -55 -24 -74 -17 -120 4 -30 5 -61 3 -67 -6 -16 -19 -17 -28 -3 -10 16 -32 12 -39 -7 -4 -9 -2 -21 4 -27 15 -15 12 -26 -9 -26 -10 0 -21 -9 -24 -19 -2 -11 -15 -21 -28 -23 -15 -2 -25 -12 -29 -28 -5 -19 -13 -25 -33 -25 -21 1 -29 -6 -38 -30 -6 -16 -11 -39 -10 -51 1 -11 -5 -26 -13 -33 -8 -7 -18 -33 -22 -57 -3 -25 -12 -51 -19 -58 -9 -8 -11 -29 -7 -61 4 -38 12 -54 34 -73 15 -13 28 -30 28 -37 0 -14 22 -25 51 -25 10 0 19 -4 19 -9 0 -5 7 -17 16 -25 14 -14 18 -14 37 -1 28 19 71 19 87 -1 25 -29 49 -36 66 -19 8 8 26 15 38 15 21 0 24 6 30 51 5 39 3 55 -9 68 -24 27 -19 51 10 51 14 0 25 4 25 10 0 12 100 64 108 56 3 -4 16 4 28 15 19 18 26 20 38 10 20 -17 35 -6 29 19 -6 23 22 39 40 21 14 -14 62 -14 87 -1 22 12 37 67 21 83 -6 6 -11 19 -11 29 0 10 -4 18 -10 18 -5 0 -10 6 -10 14 0 8 -11 24 -25 37 -13 13 -25 30 -25 37 0 6 -5 12 -10 12 -6 0 -16 11 -22 25 -6 14 -19 25 -29 25 -21 0 -39 28 -39 59 0 12 -4 21 -10 21 -5 0 -10 13 -10 29 0 16 -7 34 -15 41 -8 7 -15 22 -15 34 0 11 -7 46 -16 76 -8 30 -17 89 -20 130 -3 51 -10 77 -20 83 -7 4 -14 16 -14 27 0 23 -10 50 -19 50 -3 0 -16 -19 -27 -42z"/>
<path d="M4662 3250 c-6 -11 -12 -33 -12 -49 0 -16 -7 -34 -15 -41 -8 -7 -15 -19 -15 -26 0 -8 -13 -22 -30 -32 -16 -10 -41 -36 -56 -58 -15 -21 -30 -41 -35 -42 -5 -2 -16 -18 -23 -36 -7 -17 -29 -49 -49 -71 -21 -22 -38 -54 -42 -74 -3 -20 -11 -49 -17 -64 -8 -21 -8 -31 1 -40 12 -12 14 -73 5 -166 -7 -59 -8 -61 -35 -61 -15 0 -31 5 -34 10 -3 6 -21 10 -40 10 -19 0 -37 -4 -40 -10 -12 -19 -52 -11 -63 13 l-11 22 0 -22 c-1 -16 -7 -23 -20 -23 -33 0 -51 -11 -51 -33 0 -11 -7 -29 -16 -39 -14 -14 -14 -20 -4 -33 10 -11 10 -18 1 -29 -22 -27 -21 -60 3 -90 l23 -29 30 23 c25 18 38 21 72 15 23 -4 47 -13 54 -20 20 -19 130 -14 154 8 23 20 46 22 72 5 17 -10 23 -8 39 12 l19 24 64 -22 c82 -27 103 -29 120 -16 8 6 34 16 58 23 40 12 45 11 70 -11 30 -27 66 -48 81 -48 6 0 24 13 42 30 17 17 37 30 43 30 19 0 28 29 25 88 -1 29 3 59 7 65 5 7 16 32 23 57 7 25 16 50 19 55 3 6 11 33 16 60 l10 50 -44 43 c-25 24 -48 44 -53 45 -4 1 -14 -9 -21 -22 -16 -32 -34 -37 -42 -12 -4 13 -15 21 -29 21 -40 0 -58 -23 -64 -79 -2 -28 -8 -54 -13 -56 -11 -8 -89 35 -89 49 0 6 9 22 20 36 11 14 20 30 20 37 0 7 13 26 29 42 16 17 31 38 33 48 5 25 64 30 89 7 10 -9 19 -13 19 -7 0 5 18 18 39 28 54 24 59 66 23 182 -14 42 -62 123 -72 120 -4 -1 -29 17 -53 41 -49 46 -93 65 -172 76 -43 5 -52 3 -63 -14z"/>
<path d="M6094 3242 c-24 -16 -62 -80 -67 -112 -19 -114 -26 -150 -32 -160 -7 -11 -82 -50 -99 -50 -15 -1 -74 -83 -81 -113 -4 -14 -13 -28 -20 -30 -7 -3 -15 -17 -19 -31 -5 -20 2 -39 29 -78 19 -29 35 -58 35 -63 0 -6 13 -24 29 -39 l29 -28 28 39 c15 21 40 48 54 60 29 26 70 30 70 8 0 -8 7 -15 15 -15 8 0 23 -9 33 -20 19 -21 52 -19 52 3 0 6 7 19 17 29 15 17 15 18 -1 18 -21 0 -38 44 -34 89 2 28 8 36 28 41 20 5 25 12 24 37 -2 27 1 31 22 30 21 -2 28 7 49 58 14 33 25 78 25 100 0 39 -27 105 -56 135 -13 13 -16 13 -25 0 -5 -8 -12 -26 -15 -40 -5 -25 -62 -70 -86 -70 -7 0 -21 11 -30 24 -15 21 -16 26 -3 36 8 7 15 20 15 29 0 10 7 39 16 65 17 48 16 60 -2 48z"/>
<path d="M6223 2698 c-6 -7 -14 -23 -17 -35 -4 -11 -13 -24 -21 -27 -8 -3 -15 -12 -15 -20 0 -7 -12 -21 -26 -31 -25 -16 -27 -16 -48 4 -12 12 -30 21 -38 21 -9 0 -20 9 -23 20 -3 11 -10 20 -14 20 -14 0 -81 -70 -81 -84 0 -8 -12 -21 -26 -31 -25 -16 -28 -16 -36 -1 -14 24 -23 20 -37 -20 l-13 -36 -64 4 c-60 4 -64 3 -64 -18 0 -25 -32 -38 -50 -20 -9 8 -16 5 -30 -12 -11 -13 -24 -21 -30 -17 -15 9 -100 -34 -100 -51 0 -8 -9 -14 -19 -14 -18 0 -18 -3 -7 -27 8 -17 11 -51 8 -85 l-4 -58 -35 0 c-26 0 -36 -5 -40 -20 -6 -22 -18 -26 -28 -10 -7 12 -26 14 -24 3 4 -24 -3 -44 -22 -62 -32 -29 -23 -73 18 -83 26 -7 33 -15 39 -43 3 -19 12 -35 19 -35 20 0 24 -23 13 -75 -9 -41 -8 -50 6 -60 9 -7 16 -24 16 -38 0 -14 5 -29 10 -32 6 -3 10 -14 10 -23 0 -10 10 -22 23 -27 12 -6 21 -18 21 -28 -2 -21 9 -22 26 -2 14 17 56 20 65 5 3 -5 17 1 30 16 20 22 22 29 13 50 -10 20 -8 27 7 38 11 8 25 12 31 9 20 -7 54 34 54 66 0 16 3 31 8 33 4 2 20 22 36 46 16 23 34 42 41 42 7 0 27 15 45 34 29 29 39 33 67 29 19 -3 63 2 99 12 49 13 68 15 77 6 16 -16 46 -14 63 4 11 11 20 12 34 5 12 -7 27 -7 45 0 14 5 37 10 50 10 26 0 65 35 65 58 0 7 7 20 15 29 8 8 12 19 9 24 -3 6 3 13 15 16 13 3 21 13 21 27 0 12 5 27 10 32 7 7 8 19 1 37 -8 20 -7 28 4 34 11 7 12 24 4 92 -10 90 -14 101 -32 101 -7 0 -21 19 -32 41 -33 70 -39 79 -51 79 -13 0 -54 43 -54 57 0 20 -26 35 -37 21z"/>
<path d="M5030 2285 c-7 -8 -20 -15 -30 -15 -10 0 -20 -6 -23 -14 -3 -8 -18 -22 -32 -32 -21 -14 -31 -15 -51 -6 -22 10 -26 9 -33 -11 -5 -12 -12 -44 -16 -72 -4 -27 -14 -54 -22 -60 -8 -6 -15 -26 -16 -45 -2 -28 -7 -36 -24 -38 -14 -2 -25 -14 -33 -35 -10 -28 -8 -34 12 -50 17 -14 22 -29 22 -59 -1 -22 -6 -44 -11 -49 -16 -16 -71 1 -78 25 l-8 21 -4 -23 c-2 -12 -13 -26 -23 -32 -9 -5 -20 -22 -23 -37 -19 -91 -19 -93 -3 -99 9 -3 16 -17 16 -30 0 -19 7 -26 30 -31 17 -3 33 -10 36 -14 3 -5 17 -9 32 -9 15 0 35 -7 45 -14 13 -10 26 -11 56 -3 42 11 71 -1 71 -29 0 -17 65 -45 85 -38 8 4 15 9 15 14 0 11 106 116 125 124 9 3 23 19 33 36 16 29 39 43 72 45 63 5 97 19 115 48 10 18 19 41 20 52 0 11 4 37 9 58 7 30 5 40 -8 50 -9 7 -20 25 -24 42 -6 21 -16 31 -39 37 -47 12 -54 56 -17 109 22 33 26 45 18 66 -15 41 -37 50 -76 29 -42 -23 -72 -18 -76 12 -3 17 -10 22 -32 22 -21 0 -33 8 -49 35 -22 38 -41 44 -61 20z"/>
<path d="M6601 2111 l-24 -7 27 -18 c18 -11 25 -21 18 -28 -13 -13 45 -119 68 -125 22 -6 42 -49 35 -74 -5 -14 0 -21 18 -28 14 -6 28 -19 32 -30 3 -10 12 -22 20 -25 18 -7 19 -40 3 -69 -14 -24 -19 -139 -6 -131 4 3 8 11 8 17 0 7 20 21 45 32 51 22 53 26 53 118 0 49 4 73 16 86 20 22 21 41 1 41 -8 0 -15 6 -15 13 0 7 -10 19 -21 27 -12 8 -27 21 -35 28 -7 7 -17 12 -21 12 -4 0 -9 8 -11 20 -2 11 -12 25 -23 31 -17 9 -21 7 -26 -10 -6 -24 -11 -25 -36 -6 -11 7 -26 11 -35 8 -15 -6 -15 -2 0 68 2 9 -7 15 -23 17 -15 2 -30 11 -35 21 -7 13 -16 16 -33 12z"/>
<path d="M6270 2029 c-61 -12 -63 -12 -82 -4 -12 5 -20 2 -24 -9 -7 -18 -54 -22 -71 -5 -8 8 -28 6 -73 -5 -35 -9 -77 -14 -95 -10 -26 5 -38 0 -68 -28 -20 -18 -47 -42 -61 -53 -14 -11 -35 -42 -46 -70 -11 -27 -24 -57 -29 -65 -4 -8 -4 -33 1 -56 7 -34 6 -48 -7 -68 -11 -17 -14 -33 -9 -48 4 -13 7 -31 5 -40 -3 -22 0 -22 46 -3 26 11 39 12 49 4 8 -6 26 -8 44 -4 108 24 177 22 207 -7 18 -17 23 -18 23 -6 0 9 7 21 15 28 21 18 44 -13 45 -60 1 -109 3 -115 35 -118 17 -2 35 -8 42 -14 17 -14 35 0 28 23 -4 13 -1 21 12 26 21 8 52 43 53 59 0 16 47 54 68 55 10 0 12 3 5 6 -7 2 -13 11 -13 19 0 22 30 64 46 64 8 0 14 5 14 10 0 6 11 22 25 35 22 23 23 27 10 57 -7 18 -16 53 -20 78 -6 42 -4 46 22 61 15 8 35 29 43 45 8 16 19 32 23 35 11 8 -19 79 -32 79 -6 0 -11 -18 -11 -40 0 -34 -3 -40 -21 -40 -11 0 -32 -13 -46 -30 -13 -16 -33 -30 -43 -30 -10 0 -20 -9 -23 -20 -6 -25 -25 -26 -34 -2 -4 9 -17 27 -30 39 -22 21 -32 62 -15 64 4 1 20 3 36 5 34 4 62 27 52 43 -8 12 -31 12 -96 0z"/>
<path d="M5385 1757 c-5 -7 -15 -22 -21 -32 -7 -14 -30 -22 -75 -30 l-64 -10 -116 -115 c-96 -95 -117 -122 -123 -153 -5 -25 -3 -44 5 -53 15 -19 3 -61 -20 -69 -38 -12 -46 -32 -25 -70 14 -27 16 -38 7 -57 -11 -21 -26 -143 -25 -196 0 -13 10 -46 22 -74 19 -44 21 -63 17 -137 -7 -101 -3 -86 -23 -106 -10 -10 -13 -22 -8 -33 4 -9 6 -37 5 -60 -3 -42 -2 -44 21 -37 12 4 30 14 39 21 9 8 19 11 24 7 5 -5 -1 9 -14 29 -13 23 -18 39 -11 43 5 3 22 30 36 59 27 56 68 86 88 66 17 -17 26 -12 26 15 0 15 9 31 25 41 14 9 30 34 37 55 6 21 17 39 25 39 9 0 13 14 13 45 0 36 4 47 23 56 39 21 77 85 77 130 0 16 9 46 20 66 24 45 25 57 5 73 -8 7 -15 20 -15 30 0 10 -7 23 -15 30 -17 14 -20 56 -5 65 6 4 17 1 25 -5 21 -17 37 -2 33 32 -4 22 0 32 16 40 46 25 86 81 86 121 0 15 -4 27 -10 27 -5 0 -10 11 -10 24 0 15 -7 26 -20 29 -11 3 -20 14 -20 25 0 11 -7 25 -15 32 -9 7 -13 21 -10 31 7 22 -14 25 -30 6z"/>
<path d="M5690 1750 c0 -6 -10 -10 -22 -8 -20 3 -23 -1 -20 -31 5 -46 -31 -84 -70 -75 -34 7 -58 -10 -58 -41 0 -52 -60 -145 -94 -145 -12 0 -14 -7 -10 -29 7 -36 -27 -66 -58 -50 -25 14 -24 -11 2 -34 11 -9 20 -25 20 -36 0 -10 7 -21 15 -25 8 -3 15 -13 15 -22 0 -19 -30 -86 -43 -95 -5 -4 -6 -16 -2 -28 8 -26 -39 -117 -72 -138 -16 -11 -23 -25 -23 -48 0 -42 -9 -65 -25 -65 -7 0 -16 -12 -19 -26 -4 -14 -18 -37 -32 -51 -23 -23 -24 -27 -10 -42 9 -10 13 -26 9 -39 -4 -18 -12 -22 -49 -22 -36 0 -44 -3 -44 -18 0 -10 -3 -22 -7 -25 -12 -12 -8 -67 4 -67 7 0 23 12 36 26 21 23 27 24 47 14 16 -9 19 -15 11 -23 -6 -6 -11 -21 -11 -33 0 -12 -7 -27 -15 -34 -8 -7 -15 -17 -15 -23 0 -8 3 -8 11 0 6 6 17 9 24 7 7 -3 16 -1 20 5 10 17 52 13 59 -5 9 -23 -1 -34 -32 -34 -15 0 -33 -4 -40 -8 -20 -13 -3 -42 29 -49 16 -3 29 -12 29 -20 0 -7 8 -17 18 -20 9 -4 37 -19 61 -35 25 -15 56 -28 70 -28 15 -1 37 -7 51 -14 21 -12 26 -12 35 1 10 13 15 11 42 -11 35 -29 43 -32 43 -13 0 8 9 22 21 33 16 14 24 16 39 7 14 -10 21 -8 34 6 15 16 15 20 2 30 -9 7 -18 22 -22 34 -7 24 -43 56 -61 57 -14 0 -18 50 -4 50 5 0 36 -18 70 -41 33 -22 65 -38 71 -34 6 4 27 1 47 -6 31 -10 41 -9 70 6 18 10 33 24 33 30 0 7 9 24 20 38 20 25 20 26 2 75 -11 29 -17 63 -14 82 l5 33 -48 -6 c-40 -6 -51 -4 -71 16 -34 32 -30 53 16 83 33 22 38 29 28 41 -9 11 -8 21 4 46 51 103 59 149 38 215 -10 32 -11 56 -3 100 13 69 3 98 -27 80 -15 -10 -27 -10 -49 -1 -21 7 -32 8 -40 0 -8 -8 -17 -5 -31 11 -12 12 -27 22 -34 22 -7 0 -19 11 -26 25 -11 20 -11 29 -1 49 9 16 10 29 3 42 -21 41 -12 86 22 122 30 30 33 38 29 77 -3 25 -1 45 6 49 14 9 15 83 1 91 -5 3 -10 1 -10 -5z"/>
<path d="M6483 1686 c-12 -6 -26 -20 -32 -32 -5 -12 -19 -25 -30 -29 -22 -7 -36 -38 -25 -56 4 -7 8 -30 10 -53 1 -23 6 -62 9 -87 8 -52 -9 -119 -30 -119 -7 0 -16 -7 -19 -16 -5 -12 -17 -15 -56 -12 -39 2 -51 0 -55 -13 -3 -9 -28 -40 -56 -68 l-51 -53 4 -66 c3 -37 1 -79 -3 -94 -5 -20 -2 -34 12 -52 10 -13 19 -32 19 -41 0 -24 18 -54 49 -81 32 -28 48 -30 56 -5 4 12 19 21 46 25 45 7 69 -5 69 -33 0 -9 5 -22 10 -27 17 -17 -6 -64 -30 -64 -11 0 -23 -7 -26 -15 -10 -24 5 -85 21 -85 7 0 16 -8 19 -18 3 -9 16 -22 28 -27 13 -6 22 -17 20 -27 -5 -33 57 -42 101 -14 12 8 51 17 87 21 58 5 68 4 84 -14 15 -17 26 -19 65 -14 25 3 50 12 54 20 4 7 16 13 26 13 10 0 24 7 31 15 7 8 19 15 27 15 7 0 34 21 58 46 33 33 50 44 64 39 11 -3 22 -1 26 5 3 5 14 10 24 10 11 0 24 12 31 30 11 26 10 33 -5 50 -25 27 -41 25 -73 -9 -23 -24 -33 -28 -64 -24 -55 7 -66 27 -29 49 39 23 39 37 1 64 -16 12 -30 25 -30 30 0 5 -10 24 -22 44 -20 31 -28 35 -65 36 -40 0 -42 2 -49 36 -4 25 -1 48 12 77 21 46 23 104 6 246 -3 27 -72 -51 -83 -94 -7 -25 -9 -78 -5 -141 6 -87 5 -102 -8 -107 -9 -4 -16 -12 -16 -19 0 -16 -50 -68 -66 -68 -16 0 -7 101 10 112 18 12 -23 9 -45 -3 -15 -7 -24 -7 -34 1 -7 6 -24 8 -38 5 -14 -4 -28 -2 -31 4 -4 6 -19 11 -34 11 -36 0 -72 26 -72 52 0 11 -9 36 -21 54 -22 35 -22 68 -1 70 6 1 25 2 42 3 16 0 37 10 47 20 10 10 27 21 38 23 17 3 21 14 26 67 3 35 12 66 18 71 32 19 25 225 -9 295 -13 26 -18 29 -37 21z"/>
<path d="M5891 1555 c-43 -10 -70 -11 -82 -5 -12 7 -27 6 -46 -1 -15 -7 -40 -11 -55 -10 -19 1 -28 -5 -33 -19 -3 -11 -11 -20 -16 -20 -7 0 -8 -26 -3 -70 5 -51 3 -70 -5 -70 -20 0 7 -40 35 -50 13 -5 24 -14 24 -20 0 -7 8 -9 19 -5 10 3 31 1 47 -5 22 -9 29 -8 36 5 11 19 22 19 42 -1 19 -18 21 -68 5 -113 -18 -51 10 -111 61 -133 31 -13 40 -22 40 -41 0 -22 4 -25 33 -23 21 0 31 -3 30 -11 -2 -9 12 -13 47 -13 45 0 52 3 60 25 5 14 8 58 7 98 -2 80 12 122 45 133 11 3 23 17 28 30 5 13 14 24 20 24 5 0 10 11 10 25 0 26 26 35 46 16 14 -13 74 -1 74 15 0 8 7 14 15 14 8 0 17 11 21 25 7 29 -4 173 -14 179 -11 6 -52 -31 -52 -46 0 -8 -16 -28 -35 -44 -19 -16 -35 -36 -35 -45 0 -27 -27 -44 -45 -29 -8 7 -26 10 -40 8 -29 -6 -57 28 -48 60 2 11 0 29 -6 41 -8 14 -9 27 -2 40 7 13 6 24 -3 36 -13 18 -14 18 -20 -3 -8 -25 -23 -28 -45 -8 -25 22 -90 26 -160 11z"/>
<path d="M6766 1545 c-8 -22 -9 -19 13 -43 18 -22 18 -64 1 -87 -5 -6 18 -10 67 -10 60 0 76 3 84 18 13 23 4 36 -21 30 -12 -3 -21 0 -21 8 -1 8 -3 21 -4 29 -1 8 -3 21 -4 28 0 7 -17 12 -46 12 -30 0 -47 5 -53 16 -8 15 -10 15 -16 -1z"/>
<path d="M5876 998 c-4 -21 -10 -47 -15 -56 -29 -57 -40 -96 -35 -117 5 -19 -1 -28 -35 -51 -43 -28 -52 -44 -26 -44 9 0 18 -7 22 -16 4 -11 13 -14 31 -9 13 3 38 3 54 -1 28 -6 30 -9 25 -41 -4 -21 0 -50 8 -71 19 -45 19 -88 0 -96 -25 -9 -17 -40 19 -75 35 -34 56 -34 56 -1 0 11 12 26 30 35 16 8 36 27 43 41 12 23 15 24 26 10 8 -9 21 -16 30 -16 10 0 35 -9 57 -19 61 -30 95 -36 105 -20 7 12 12 12 29 1 28 -17 58 -7 62 21 2 13 11 23 23 25 22 3 52 52 32 52 -7 0 -27 15 -44 34 -28 28 -33 40 -33 84 0 48 1 51 31 57 29 7 31 9 24 43 -4 21 -10 40 -14 44 -11 12 -81 -3 -81 -18 0 -23 -60 -21 -73 2 -4 8 -14 14 -21 14 -14 0 -46 61 -46 89 0 31 -26 44 -75 38 -52 -8 -75 -1 -75 21 0 13 -3 13 -19 -2 -25 -23 -37 -15 -45 27 -4 24 -14 36 -35 44 -28 10 -29 10 -35 -29z"/>
</g>


</svg>